<?xml version="1.0" encoding="utf-8"?>
<!-- Generator: Adobe Illustrator 17.0.0, SVG Export Plug-In . SVG Version: 6.00 Build 0)  -->
<!DOCTYPE svg PUBLIC "-//W3C//DTD SVG 1.1//EN" "http://www.w3.org/Graphics/SVG/1.1/DTD/svg11.dtd">
<svg version="1.1" id="Layer_1" xmlns="http://www.w3.org/2000/svg" xmlns:xlink="http://www.w3.org/1999/xlink" x="0px" y="0px"
	 width="960px" height="560px" viewBox="0 0 960 560" enable-background="new 0 0 960 560" xml:space="preserve">
<path display="none" fill="#C9C9C9" d="M507,387.739c0,7.876-5.373,14.261-12,14.261H264c-6.627,0-12-6.385-12-14.261V198.777
	c0-7.876,5.373-13.777,12-13.777h231c6.627,0,12,5.901,12,13.777V387.739z"/>
<path display="none" d="M324.821,282.601l1.792,4.502c-3.333,0.862-6.327,1.244-8.984,1.142c-3.028-0.119-5.627-0.848-7.799-2.186
	c-2.172-1.338-3.724-3.179-4.657-5.523c-0.956-2.401-0.983-4.717-0.082-6.946c0.901-2.23,2.494-3.8,4.782-4.71
	c2.515-1.001,5.001-0.83,7.455,0.51c1.741,0.963,2.936,2.258,3.584,3.888c0.467,1.173,0.621,2.435,0.465,3.789
	c-0.157,1.354-0.593,2.588-1.309,3.7c-0.654,1.022-0.912,1.704-0.775,2.047c0.182,0.458,0.827,0.664,1.936,0.621
	C322.337,283.391,323.535,283.113,324.821,282.601z M302.839,227.372l1.724,4.331c-1.013,0.701-1.705,1.292-2.077,1.771
	c-0.247,0.297-0.419,0.631-0.52,1.002c-0.1,0.371-0.111,0.657-0.031,0.857c0.21,0.447,0.693,0.784,1.447,1.014l2.604,0.801
	c1.25,0.396,2.263,1.567,3.036,3.51c0.831,2.087,0.792,4.173-0.118,6.256c-0.909,2.084-2.422,3.547-4.537,4.389
	c-2.116,0.842-4.192,0.783-6.23-0.178c-2.038-0.96-3.506-2.57-4.405-4.828c-0.774-1.944-1.003-3.997-0.688-6.159
	c0.315-2.162,1.143-4.221,2.483-6.179C297.072,231.687,299.51,229.491,302.839,227.372z M327.334,251.35
	c2.783-0.246,4.905-0.321,6.368-0.225c1.462,0.097,2.836,0.386,4.121,0.868c1.724,0.672,3.316,1.76,4.776,3.265
	c1.46,1.505,2.577,3.23,3.351,5.173c1.764,4.431,1.704,8.694-0.176,12.786c-1.153,2.513-2.881,4.765-5.184,6.757
	c-2.303,1.993-5.056,3.627-8.257,4.901l-1.904,0.708l-1.792-4.502c1.419-1.094,2.309-2.227,2.671-3.398
	c0.224-0.685,0.305-1.354,0.243-2.009c-0.061-0.653-0.286-1.467-0.673-2.439l-4.898-12.307c-0.478-1.2-0.882-2.049-1.212-2.547
	c-0.331-0.497-0.799-0.924-1.403-1.28c-1.221-0.738-2.707-0.81-4.456-0.213c-1.166,0.398-1.981,0.557-2.444,0.475
	c-0.788-0.149-1.341-0.624-1.66-1.425c-0.319-0.8-0.319-1.445-0.001-1.937c0.318-0.49,1.069-1.038,2.252-1.641
	c3.088-1.56,4.046-3.813,2.874-6.757l-0.709-1.655l-3.857-9.691c-0.717-1.801-1.592-3.001-2.625-3.6
	c-1.033-0.598-2.487-0.757-4.362-0.474l-1.809-4.545l1.2-0.478c2.745-1.092,5.542-1.759,8.394-2
	c2.851-0.241,5.451-0.034,7.798,0.622c2.307,0.638,4.292,1.694,5.955,3.168c1.662,1.474,2.915,3.269,3.757,5.384
	c1.513,3.802,1.566,7.473,0.161,11.013c-0.614,1.536-1.384,2.869-2.308,3.998C330.603,248.477,329.205,249.811,327.334,251.35z"/>
<path display="none" d="M376.369,214.957v4.661c-1.692,0.524-2.9,1.3-3.623,2.331c-0.723,1.031-1.084,2.485-1.084,4.361v42.275
	c0,1.477,0.046,2.5,0.139,3.069c0.092,0.57,0.307,1.07,0.646,1.5c0.492,0.646,1.446,1.154,2.861,1.523v4.846
	c-2.954-0.339-5.723-1.223-8.307-2.654s-4.892-3.361-6.923-5.792c-2.277-2.738-4.038-6.223-5.284-10.454
	c-1.246-4.23-1.869-8.822-1.869-13.776c0-10.553,3.03-18.922,9.092-25.106c2.123-2.153,4.438-3.823,6.946-5.007
	C371.469,215.55,373.938,214.957,376.369,214.957z M375.307,249.894v-5.308c3.354-1.846,6.6-2.769,9.738-2.769
	c1.907,0,3.822,0.369,5.746,1.107c1.923,0.739,3.607,1.754,5.054,3.046c1.6,1.477,2.846,3.27,3.738,5.376
	c0.892,2.108,1.338,4.346,1.338,6.715c0,3.138-0.677,6.223-2.031,9.253c-1.354,3.031-3.138,5.469-5.354,7.315
	c-1.816,1.477-3.954,2.662-6.415,3.554c-2.462,0.892-4.862,1.338-7.2,1.338h-1.154v-4.846c1.23-0.307,2.107-0.799,2.631-1.477
	c0.522-0.677,0.784-1.662,0.784-2.954v-17.261c0-1.384-0.292-2.476-0.876-3.276c-0.585-0.8-1.354-1.169-2.308-1.108
	C378.046,248.633,376.815,249.063,375.307,249.894z M379.83,219.618v-4.661c3.046,0,6.138,0.738,9.276,2.215
	c2.646,1.262,4.715,2.9,6.208,4.915c1.492,2.016,2.238,4.193,2.238,6.531c0,2.554-0.862,4.692-2.584,6.415
	c-1.723,1.723-3.876,2.584-6.461,2.584c-2.277,0-4.216-0.739-5.815-2.215c-1.6-1.477-2.4-3.246-2.4-5.308
	c0-1.63,0.692-3.261,2.077-4.892c0.646-0.738,1.077-1.299,1.292-1.685c0.215-0.384,0.323-0.792,0.323-1.223
	C383.984,220.849,382.599,219.957,379.83,219.618z"/>
<path display="none" d="M421.103,280.261l-1.232,4.925c-3.082-0.993-5.79-2.526-8.126-4.602c-2.209-1.948-3.755-4.039-4.639-6.275
	c-0.884-2.235-1.046-4.471-0.486-6.71c0.65-2.597,2.019-4.553,4.109-5.871c2.09-1.316,4.388-1.661,6.896-1.034
	c2.149,0.538,3.813,1.779,4.991,3.723c1.179,1.944,1.503,3.976,0.973,6.095c-0.299,1.194-0.902,2.336-1.809,3.425
	c-0.907,1.09-1.875,1.855-2.905,2.294c-0.814,0.336-1.261,0.668-1.343,0.996c-0.12,0.478,0.134,0.985,0.761,1.522
	C418.921,279.287,419.857,279.791,421.103,280.261z M418.324,237.748l4.007,1.478l-3.091,9.122c2.126-1.021,3.97-1.734,5.53-2.137
	c1.559-0.402,3.227-0.604,5.004-0.603l-1.579,6.313c-3.381-0.053-6.325,0.305-8.832,1.073c-1.657,0.537-2.814,0.723-3.47,0.559
	c-0.806-0.202-1.386-0.576-1.74-1.125c-0.355-0.548-0.438-1.196-0.251-1.942c0.09-0.358,0.209-0.772,0.359-1.242L418.324,237.748z
	 M419.488,234.424l4.961-14.506c0.955,0.366,1.518,0.587,1.69,0.661l8.742,3.472c3.082,1.247,6.846,2.426,11.294,3.539
	c2.984,0.747,5.439,1.203,7.365,1.367c1.925,0.165,4.003,0.097,6.235-0.2c-1.142,1.903-2.251,3.418-3.325,4.544
	c-1.075,1.127-2.451,2.193-4.131,3.201c-1.791,1.074-3.687,1.901-5.686,2.478c-2,0.578-3.915,0.845-5.743,0.8
	c-2.776-0.06-6.253-0.613-10.432-1.659C426.666,237.171,423.01,235.94,419.488,234.424z M431.955,252.862l1.624-6.492
	c3.074,0.769,5.596,1.654,7.566,2.654c1.969,1.001,3.768,2.307,5.395,3.919c5.118,5.023,6.751,11.236,4.899,18.638
	c-0.889,3.552-2.375,6.574-4.457,9.066c-2.083,2.492-4.613,4.301-7.59,5.428c-2.089,0.746-4.402,1.175-6.935,1.286
	c-2.533,0.111-4.98-0.128-7.337-0.718l-1.388-0.347l1.266-5.059c1-0.066,1.833-0.262,2.502-0.587
	c0.668-0.324,1.285-0.86,1.853-1.606c0.358-0.417,0.754-1.143,1.187-2.177c0.432-1.033,0.773-2.042,1.019-3.027l2.868-11.462
	c0.657-2.626,0.816-4.593,0.477-5.899C434.564,255.172,433.581,253.967,431.955,252.862z"/>
<path display="none" fill="#006837" d="M294.242,308.165v62.997h-20.538h-1.2c-1.107,0-1.961-0.208-2.561-0.623
	c-0.6-0.415-0.9-1.008-0.9-1.776c0-1.262,0.615-2.093,1.846-2.492c1.016-0.339,1.607-0.546,1.777-0.624
	c0.169-0.076,0.346-0.253,0.531-0.53c0.369-0.492,0.554-1.276,0.554-2.354v-46.198c0-1.076-0.185-1.861-0.554-2.354
	c-0.185-0.277-0.362-0.454-0.531-0.531c-0.169-0.076-0.761-0.284-1.777-0.623c-1.231-0.399-1.846-1.229-1.846-2.492
	c0-0.769,0.3-1.361,0.9-1.776c0.6-0.415,1.454-0.623,2.561-0.623h1.2H294.242z M303.564,357.963v-36.414
	c0-2.245-0.323-4.03-0.969-5.354c-0.4-0.861-0.893-1.492-1.477-1.893c-0.585-0.399-1.508-0.738-2.769-1.015v-5.123
	c1.63,0,3.015,0.062,4.154,0.185c3.907,0.432,7.691,2.093,11.353,4.984c3.63,2.8,6.323,6.446,8.077,10.938
	c1.815,4.555,2.723,9.6,2.723,15.139c0,6.276-1.154,11.854-3.461,16.729c-2.308,4.877-5.615,8.716-9.923,11.515
	c-2.093,1.354-4.038,2.277-5.838,2.77c-1.8,0.492-4.162,0.738-7.084,0.738v-4.984c1.292-0.338,2.192-0.646,2.7-0.923
	c0.508-0.277,0.946-0.708,1.315-1.292c0.461-0.677,0.777-1.438,0.946-2.285C303.479,360.832,303.564,359.594,303.564,357.963z"/>
<path display="none" fill="#006837" d="M345.655,319.888l2.354,9.553l-8.169,29.814c-0.247,0.861-0.369,1.661-0.369,2.4
	c0,1.938,0.907,3.322,2.723,4.153l1.615,0.738c1.015,0.462,1.523,1.231,1.523,2.308c0,1.539-1.124,2.308-3.369,2.308H330.24
	c-1.139,0-2.039-0.238-2.7-0.716c-0.662-0.477-0.992-1.13-0.992-1.961c0-0.892,0.676-1.631,2.031-2.215
	c1.261-0.555,2.192-1.054,2.792-1.5s1.177-1.054,1.731-1.823c0.861-1.262,1.569-2.938,2.123-5.03L345.655,319.888z M348.839,308.165
	h18.599l12.83,54.229c0.246,0.954,0.523,1.8,0.831,2.538c0.277,0.585,0.892,1.062,1.846,1.431c0.8,0.339,1.354,0.677,1.662,1.016
	c0.307,0.339,0.461,0.8,0.461,1.385c0,1.6-1.2,2.399-3.6,2.399h-23.029c-0.923,0-1.662-0.223-2.215-0.669
	c-0.554-0.446-0.831-1.039-0.831-1.777c0-0.615,0.123-1.076,0.369-1.385c0.246-0.307,0.8-0.691,1.662-1.153
	c0.615-0.308,1.046-0.646,1.292-1.016c0.246-0.369,0.369-0.83,0.369-1.385c0-0.522-0.046-0.983-0.139-1.384l-1.477-6.692h-12.876
	l1.246-5.492h10.338l-8.492-37.521L348.839,308.165z"/>
<path display="none" fill="#006837" d="M422.959,342.271v20.122c0,1.199,0.231,2.062,0.692,2.584
	c0.246,0.309,0.477,0.501,0.692,0.577c0.215,0.077,0.923,0.27,2.123,0.577c1.477,0.339,2.215,1.185,2.215,2.538
	c0,0.893-0.415,1.569-1.246,2.03c-0.492,0.309-1.446,0.462-2.861,0.462h-1.569h-20.583h-1.523c-1.385,0-2.354-0.185-2.908-0.554
	c-0.8-0.492-1.2-1.138-1.2-1.938c0-1.354,0.738-2.199,2.215-2.538c1.2-0.308,1.907-0.5,2.123-0.577
	c0.215-0.076,0.43-0.269,0.646-0.577c0.461-0.522,0.692-1.385,0.692-2.584v-15.6l-13.061-31.152
	c-0.493-1.169-1.185-2.015-2.077-2.538c-0.831-0.523-1.361-0.938-1.592-1.246c-0.231-0.308-0.346-0.739-0.346-1.293
	c0-1.599,1.169-2.399,3.507-2.399h22.614c1.2,0,2.031,0.139,2.492,0.415c0.769,0.493,1.154,1.139,1.154,1.938
	c0,0.985-0.446,1.754-1.338,2.308l-1.338,0.831c-0.523,0.339-0.785,0.847-0.785,1.522c0,0.77,0.169,1.523,0.508,2.262
	L422.959,342.271z M424.759,337.887l-2.584-6.046l4.846-10.846c0.399-0.923,0.6-2.185,0.6-3.784c0-1.784-0.985-3.062-2.954-3.831
	c-1.077-0.431-1.777-0.808-2.1-1.131c-0.323-0.322-0.485-0.822-0.485-1.5c0-0.83,0.277-1.461,0.831-1.892
	c0.37-0.277,0.785-0.462,1.246-0.554c0.462-0.093,1.261-0.139,2.4-0.139h11.4c2.153,0,3.23,0.861,3.23,2.584
	c0,0.616-0.146,1.093-0.438,1.431c-0.293,0.34-0.854,0.692-1.685,1.062c-1.508,0.678-2.584,1.354-3.23,2.031
	c-0.923,0.985-1.692,2.107-2.308,3.369l-1.062,2.354L424.759,337.887z"/>
<path display="none" fill="#006837" d="M466.572,306.919v5.308c-1.908,0.523-3.362,1.331-4.361,2.423c-1,1.093-1.5,2.438-1.5,4.038
	c0,1.539,0.416,2.885,1.246,4.038c0.831,1.154,2.184,2.255,4.062,3.3c1.292,0.708,4.215,2.062,8.769,4.062
	c2.769,1.2,4.915,2.284,6.438,3.254c1.523,0.969,2.961,2.177,4.314,3.623c3.631,3.815,5.447,8.354,5.447,13.614
	c0,3.97-0.986,7.601-2.955,10.893s-4.676,5.877-8.121,7.753c-1.846,0.985-3.87,1.762-6.069,2.331
	c-2.2,0.568-4.254,0.854-6.161,0.854v-5.262c2.677-0.646,4.607-1.546,5.792-2.699c1.184-1.154,1.777-2.715,1.777-4.685
	c0-2.062-0.923-3.877-2.769-5.446c-1.231-1.015-3.569-2.276-7.015-3.784c-3.784-1.661-6.377-2.846-7.776-3.554
	c-1.4-0.707-2.746-1.538-4.039-2.492c-5.785-4.123-8.676-9.614-8.676-16.477c0-3.507,0.723-6.745,2.169-9.715
	c1.446-2.969,3.461-5.36,6.046-7.177C456.788,308.596,461.249,307.195,466.572,306.919z M464.172,367.146v5.262
	c-2.523,0-5.308-0.724-8.354-2.169c-1.139-0.523-1.923-0.861-2.354-1.016c-0.431-0.153-0.846-0.23-1.246-0.23
	c-0.616,0-1.077,0.1-1.384,0.3c-0.308,0.2-0.801,0.7-1.477,1.5c-0.554,0.677-1.154,1.016-1.8,1.016c-1.724,0-2.584-1.323-2.584-3.97
	V351.04c0-0.861,0.246-1.593,0.738-2.192c0.492-0.6,1.108-0.915,1.846-0.946c0.676-0.03,1.207,0.162,1.592,0.577
	c0.384,0.415,0.715,1.146,0.992,2.192c0.708,2.646,1.73,5.123,3.069,7.431c1.338,2.308,2.899,4.262,4.684,5.861
	C459.71,365.624,461.803,366.686,464.172,367.146z M470.218,312.227v-5.077c1.846,0.123,3.445,0.362,4.8,0.716
	c1.354,0.354,3.277,1.054,5.769,2.1c0.614,0.247,1.123,0.369,1.521,0.369c0.584,0,1.016-0.199,1.293-0.6l1.016-1.339
	c0.492-0.676,1.092-1.016,1.799-1.016c0.832,0,1.439,0.301,1.824,0.9s0.576,1.546,0.576,2.838v15.23
	c0,0.893-0.254,1.623-0.762,2.192s-1.16,0.854-1.961,0.854c-0.615,0-1.186-0.199-1.707-0.6c-0.277-0.246-0.5-0.546-0.67-0.9
	c-0.17-0.354-0.33-0.946-0.484-1.776c-0.34-1.508-0.924-3.062-1.754-4.661s-1.799-3.03-2.907-4.293
	C476.356,314.672,473.571,313.026,470.218,312.227z"/>
<rect x="269" y="295" display="none" fill="#F2F2F2" width="222" height="7"/>
<rect x="-60" y="-569" fill="#456052" width="1080" height="1920"/>
<g>
	<path fill="#D9D9D9" d="M114.127,340.621c-16.88,9.117-33.923-7.505-42.059-43.05c16.818,3.955,33.041,5.365,48.423-6.9
		c3.854-3.074,7.832-5.729,11.539-9.295c3.291-3.167,7.078-7.075,5.779-15.293c-1.322-8.364-5.59-7.468-9.383-7.123
		c-10.125,0.921-18.818,9.947-28.039,15.975c-19.68,12.865-38.647,3.198-48.545-25.138c-2.467-7.062-5.765-15.424-3.12-23.374
		c3.259-9.797,8.4-2.135,12.716-0.934c12.417,3.456,24.766,10.472,37.427,3.655c5.57-2.999,11.016-8.154,10.624-20.438
		c-0.434-13.573-6.497-17.442-12.878-18.913c-3.704-0.854-7.492-0.619-11.244-0.721c-23.809-0.65-31.119-12.657-33.026-54.789
		c-0.341-7.539-0.254-15.171-0.117-22.745c0.852-47.107,4.028-53.189,29.559-59.241c6.01-1.425,11.925-4.334,17.83-6.946
		c28.594-12.646,51.849,17.727,54.062,70.454c0.633,15.09,1.652,30.137,2.712,45.154c0.391,5.538,0.05,13.091,4.429,13.822
		c4.042,0.675,4.619-7.313,6.757-11.419c7.776,7.924,8.171,21.38,7.868,35.002c-2.27,102.043,1.91,204.006,1.024,306.014
		c-0.136,15.691,3.109,34.9-8.492,44.056c-0.081-51.429-0.501-102.867-0.077-154.282c0.169-20.517-0.792-31.343-15.284-24.737
		c-17.203,7.842-29.293-2.569-35.761-23.833c2.847-8.041,7.105-12.594,11.162-15.21
		C123.726,332.608,119.689,340.004,114.127,340.621z"/>
	<path fill="#BDBDBD" d="M762.649,224.918c0.154,3.557,0.308,7.114,0.461,10.671c-0.21,54.582,8.821,106.434,14.583,159.253
		c0.886,4.425,0.572,8.441-1.259,11.94c-10.365-2.779-11.011,12.929-14.121,23.949c4.584,9.389,13.647-2.613,17.214,11.63
		c-14.897,2.597-18.095,18.625-17.141,43.04c1.136,29.062,0.343,58.367,0.386,87.566c-10.648,11.77-18.405,8.302-26.666-11.906
		c-1.03-34.051-1.808-67.853,0.222-102.181c3.749-63.412,4.153-127.258-0.531-190.685c-1.667-22.568-2.28-45.091-2.862-67.7
		c-0.21-94.357,0.012-188.724-0.127-283.089c-0.067-45.188-5.301-54.552-30.718-54.833c-32.836-0.364-65.673,0.039-98.51-0.189
		c-7.961-0.055-16,0.498-23.46-5.971c-9.51-23.797-6.298-42.187,8.805-49.052c5.373-2.442,10.503-6.135,15.848-8.633
		c11.575,6.081,23.27,0.49,34.901,0.829c32.299,0.941,64.613,0.039,96.916,0.622c19.223,0.347,25.519,13.232,26.175,47.856
		c0.777,41.042-2.784,82.398,2.617,123.117c3.874,12.868,3.826,26.78,3.884,40.946c0.241,58.745,0.652,117.48,0.24,176.236
		C769.408,202.525,768.132,214.637,762.649,224.918z"/>
	<path fill="#3A3A3A" d="M773.6,1140.711c-6.916,2.589-11.926,0.494-11.462-15.05c-5.716-5.97-6.326-16.196-6.384-26.352
		c-0.286-49.54-1.408-99.104,0.836-148.563c14.68-50.971,17.593-110.846,36.923-158.328c11.751-7.034,18.937-20.145,18.661-43.94
		c-0.076-6.561,0.48-13.445,3.465-18.501c9.388-8.339,12.787,4.045,15.105,15.807c2.044,10.373,4.801,19.834,7.741,29.28
		c6.879,15.155,16.625,13.333,25.908,14.308c7.866,0.826,15.578,2.116,14.662,21.951c1.282,25.303,0.743,50.697,1.379,76.022
		c-0.214,15.992-1.934,31.434-5.24,46.297c-9.587,19.689-10.153,30.084-2.733,50.173c18.766,36.089,25.994,82.611,35.597,126.986
		c-0.256,9.978,6.389,22.692-4.785,28.028c-9.101,4.346-15.375,2.66-19.106-14.251c-1.179-5.343-3.426-9.926-5.184-14.857
		c-18.921-22.137-25.547-59.958-36.531-92.24c-4.437-33.127-5.041-68.05-14.325-98.595c-23.763,27.228-35.706,65.471-33.268,116.107
		c1.408,29.252-5.115,55.646-7.506,83.485C786.21,1131.773,779.898,1136.688,773.6,1140.711z"/>
	<path fill="#D8D8D8" d="M762.649,224.918c-0.081-58.702,0.02-117.407-0.326-176.104c-0.154-26.098,1.527-51.84,3.058-77.662
		c5.375,4.79,6.721,15.561,10.384,23.512c5.045-7.482,2.863-17.484,3.562-26.061c1.775-21.776,7.594-37.926,19.561-44.755
		c11.855-6.765,20.152,0.86,21.483,22.733c1.65,27.122,6.922,17.266,12.899,6.014c6.955-13.093,15.206-22.464,24.613-28.316
		c13.572-8.444,27.386,3.208,30.65,25.217c3.633,24.493-3.144,45.246-17.655,51.281c-11.83,4.92-23.933,7.681-35.859,11.91
		c-4.198,1.488-8.821,4.982-9.61,12.942c-0.866,8.736,4.837,8.628,7.672,12.208c5.972,7.542,11.371,15.685,10.328,30.437
		c-1.136,16.067-8.429,17.804-15.412,20.951c-5.965,2.688-13.037,1.662-17.629,12.505c5.064,11.684,19.391,0.252,17.944,21.704
		c-1.615,23.949-13.413,32.408-27.156,38.959c7.745,7.551,14.095,12.086,19.345,19.228c9.056,12.319,7.778,25.454-2.644,33.956
		c-12.845,10.479-26.438,9.786-40.051,8.414C772.727,223.479,767.618,220.075,762.649,224.918z"/>
	<path fill="#8F8F8F" d="M877.991,811.415c-4.369-15.008-12.235-8.499-18.618-8.927c-11.376-0.762-22.414-1.28-29.03-21.794
		c-3.504-9.024-1.901-19.51-1.96-29.095c-0.099-16.19-3.289-25.667-12.648-26.789c-3.018-2.856-4.058-6.841-2.207-12.469
		c8.355-3.763,8.801-20.441,14.442-28.644c0.711-3.301,4.755,3.584,4.173-5.087c-0.651-9.713-0.209-19.681-0.327-25.413
		c-0.718,3.722-4.818,8.849-5.893,17.06c-2.106,9.419-5.615,16.65-10.472,21.791c-9.875,7.545-21.034,5.283-30.864,13.077
		c-7.915,1.031-15.955-1.616-23.789,2.358c14.366-5.047,19.693-3.326,24.847,8.11c-5.277,16.032-13.895,9.959-21.498,10.594
		c-5.6-0.049-11.217,0.669-16.793-0.969c-1.618-0.103-3.232-0.211-4.859-0.266c-1.665,0.051-3.317,0.087-4.982,0.174
		c-8.39,1.688-12.507-7.679-15.687-19.491c-2.607-9.338-0.318-18.158,0.876-27.097c4.189-12.379,11.858-8.707,17.896-12.53
		c6.545-3.332,13.183-5.879,20.006-6.385c8.222-0.708,15.609-6.172,22.671-13.178c3.428-5.343,3.94-11.654,1.904-18.73
		c-1.317-3.25-3.072-5.309-5.24-6.34c-24.619-5.507-46.605-24.299-68.594-43.187c-2.449-6.777-6.09-12.314-6.565-21.058
		c-0.568-6.107-0.259-11.804,2.258-16.54c15.759-7.713,23.377-3.427,32.677,18.369c7.213,7.178,14.859,12.054,23.056,14.011
		c0.799,0.168,1.596,0.349,2.393,0.54c13.805-7.986,22.907-28.172,34.232-42.581c7.474-5.854,11.73-1.847,11.986,13.145
		c0.111,6.497-1.277,13.403,2.505,18.009c1.18,1.05,2.355,2.04,3.643,2.086c4.82-7.854,1.576-18.73,3.546-27.43
		c2.894-8.163-0.307-23.566,8.911-24.126c1.646,2.905,3.122,7.905,4.965,8.386c15.607,4.074,21.988,24.644,25.508,47.973
		c7.486,49.611,12.08,100.28,14.36,151.571c-1.473,2.911-3.173,5.372-4.857,7.864c1.701,1.267,3.501,1.38,5.303,1.486
		c3.469,27.15,8.603,53.985,4.824,82.502l-1.243,0.842L877.991,811.415z"/>
	<path fill="#BFBFBF" d="M167.974,548.434c2.574-8.5,2.594-17.792,2.519-27.066c-0.96-119.334-1.941-238.668-2.919-358.005
		c1.809-40.266-3.401-80.545,0.25-120.895c0.864-9.549,0.841-20.509-5.588-25.957c-0.334-1.636-0.458-3.458,0.14-4.329
		c1.382-2.011,3.072-8.552,2.59-10.9c3.014-14.53-3.169-16.688-8.395-20.133c-2.394-7.117,0.004-13.433,2.287-17.449
		c5.743-10.104,5.179-21.508,3.744-33.719c-3.138-31.616,2.282-63.304-0.582-95.005c-1.35-14.944,6.885-18.156,11.749-25.206
		c12.856-14.656,27.39-8.944,41.113-9.408c37.002-1.251,74.028-0.174,111.045-0.02c4.882,5.393,10.498,5.351,15.896,6.838
		c16.989,4.677,20.633,19.274,11.902,47.905c-7.723,7.96-16.265,7.204-24.675,7.275c-35.622,0.305-71.245,0.049-106.867,0.148
		c-5.163,0.014-10.312,0.287-15.352,2.323c-14.267,13.654-19.391,39.835-19.643,63.952c-1.983,189.899-1.266,379.845-0.646,569.776
		c0.003,0.783,0.332,1.563,0.453,2.352c6.387,25.005-3.234,44.394-7.164,65.794c-3.815,9.305-5.418,25.059-15.227,16.877
		C166.895,572.227,168.276,560.59,167.974,548.434z"/>
	<path fill="#3A3A3A" d="M83.158,943.455c-0.952-1.753-1.903-3.507-2.855-5.26c5.065-12.41,1.006-22.607-2.485-32.956
		c-0.623-8.003-1.553-15.898-2.346-23.835c-2.688-19.309-8.53-37.006-9.143-57.38c-0.034-2.475,0.227-4.861,0.703-7.177
		c3.469-9.569,10.123-15.757,9.715-29.536c0.463-2.423,1.127-4.616,1.987-6.657c3.276-5.327,7.319-7.563,11.47-9.366
		c10.748-0.207,6.513-17.222,8.451-26.287c3.261-15.255,6.892-23.85,16.292-14.446c5.728,31.052,15.424,51.443,35.939,44.777
		c2.262-0.735,5.147,3.249,7.237,6.764c2.523,6.383,3.816,13.587,4.493,21.2c-4.339,26.631,2.803,52.973,0.667,79.579
		c-1.201,14.951,4.253,17.54,10.705,18.116c4.99,6.766,3.555,16.084,3.096,24.996c-4.571,13.989-12.363,12.894-19.615,12.432
		c-4.589-0.292-9.18-2.64-13.841-3.14c-1.401-0.151-2.791,0.24-4.188,0.269c1.562,0.221,2.997,0.89,3.876,3.594
		c0.284,2.729-0.035,5.162-0.957,7.376c-1.688,3.02-3.904,4.174-6.018,5.727c-6.209,3.864-12.621,3.316-19.024,3.013
		c-6.982-0.759-13.976-0.794-20.965-1.083C91.071,953.956,86.016,953.151,83.158,943.455z"/>
	<path fill="#A0A0A0" d="M153.371,786.793c-1.339-0.647-2.691-1.935-4.015-1.847c-30.34,1.993-30.339,2.021-38.115-49.387
		c-1.58-6.584-6.071-9.684-6.558-17.588c-2.535-65.355-9.113-130.137-8.884-195.943c1.597-6.355,4.151-10.492,8.12-11.345
		c14.558,29.872,32.267,54.995,42.328,91.661c2.7,9.84,5.88,8.195,9.195-0.196c2.65-6.705,6.082-12.414,9.164-18.565
		c6.205-2.077,3.526-20.841,11.456-19.682c3.394-1.325,6.314-0.121,8.448,5.13c2.449,12.058,1.089,24.045-0.307,35.999
		c-8.92,12.643-5.159,37.39-14.669,49.485c-15.813,30.405-25.412,28.246-37.866-8.337c0.254-3.282-0.165,1.161,0.063-2.187
		c0.152-2.234,0.581-4.37,0.639-6.625c-0.105,1.794-0.311,3.551-0.601,5.421c8.202,38.773,13.111,79.618,24.465,116.192
		C159.248,768.689,160.933,779.741,153.371,786.793z"/>
	<path fill="#A1A1A1" d="M91.771,781.704c-3.592,1.78-7.184,3.56-10.776,5.34c-11.652,5.482-14.371,1.324-12.111-18.678
		c4.973-44.006-1.817-87.383-2.222-131.102c-0.022-2.405-1.86-3.326-3.3-3.532c-3.721,0.404-6.523,4.064-9.26,7.975
		c-5.533,6.566-3.262,13.635-0.46,20.8c4.043,10.337,6.883,21.186,4.264,34.261c-3.867,14.18-9.581,17.051-17.077,9.14l-0.42,0.264
		c-13.252-9.182-18.332-31.262-24.926-50.951c-4.884-13.919-1.145-25.235,3.682-35.687c7.31-15.825,14.924-31.197,22.409-46.762
		c10.031-22.28,20.698-43.283,35.196-56.683c4.334-2.15,8.145-0.449,11.451,4.995c1.029,2.486,1.65,5.267,1.876,8.336
		c5.27,59.63,12.121,118.89,12.456,179.662c0.023,4.148-1.002,7.814-0.594,11.813c-1.15,14.661-4.383,28.715-3.725,43.91
		C98.603,773.327,96.462,779.202,91.771,781.704z"/>
	<path fill="#959595" d="M353.076-148.948c2.201-22.035-2.024-33.426-15.383-31.709c-6.987,0.898-11.508-5.357-11.767-19.005
		c4.475-10.872,10.972-11.108,17.616-11.075c33.506,0.168,67.013,0.21,100.519,0.297c4.191,2.009,6.355-2.843,6.77-8.651
		c0.629-8.791,3.385-12.904,7.551-15.422c4.586-3.907,8.58-9.686,13.152-13.671c4.527-0.666,7.651-7.497,12.013-8.893
		c0.418,1.495,0.999,2.913,1.23,4.496c6.077,41.769,6.071,41.781,30.8,41.77c23.764-0.011,47.528-0.167,71.291,0.015
		c6.405,0.049,13.297-1.848,17.907,9.525c1.438,14.593-3.36,20.451-10.202,20.386c-12.271-0.117-16.662,10.594-15.164,31.268
		c4.507,9.376,5.482,18.289-1.055,26.222c-3.804,1.195-5.67-3.694-7.726-7.951c-1.622-4.387-2.934-8.99-2.697-14.487
		c0.829-13.523-3.783-18.743-10.169-21.235c-22.303-8.367-44.641-2.49-66.972-0.993c-16.257,0.21-32.499,0.239-48.727-0.009
		c-22.534-1.24-45.112-7.564-67.56,1.368c-5.143,2.819-9.805,6.405-9.148,18.551c0.077,7.456,1.09,15.323-2.935,20.911
		c-7.311,4.43-9.247-4.13-10.59-14.121C351.75-144.152,352.165-146.681,353.076-148.948z"/>
	<path fill="#D3D3D3" d="M83.158,943.455c11.321-2.29,22.63-2.556,33.92,0.618c4.145,9.6,4.377,20.858,2.289,31.213
		c-6.366,31.582-13.118,62.912-18.977,94.825c-0.943,5.139-3.018,8.323-5.975,9.573c-4.606,15.64-1.768,33.878-5.393,49.86
		c-4.735,8.284-9.511,9.646-14.347,0.266c1.07-1.629,2.14-3.258,3.21-4.887c-7.593-12.122-4.404-30.934-8.676-45.116
		C67.213,1032.163,73.544,987.268,83.158,943.455z"/>
	<path fill="#888888" d="M60.476,619.638c4.07-2.988,6.904-15.145,11.878-9.071c4.361,5.325,2.053,15.67,0.995,23.618
		c-3.724,27.97,2.021,55.133,2.084,82.852c0.04,17.528,2.24,34.906-0.936,52.313c-1.881,10.312,0.708,16.076,6.496,17.691
		c-0.405,1.204-0.794,2.423-1.165,3.661c-2.232,8.411-6.41,8.532-10.714,8.112c-3.717,0.562-6.282-3.26-8.755-7.428
		c-2.452-6.034-2.412-12.998-2.309-19.985c2.286-21.487-0.83-42.419-2.066-63.582c6.327-19.056,0.499-36.344-2.448-54.023
		C55.419,642.154,58.238,631.087,60.476,619.638z"/>
	<path fill="#3E3E3E" d="M85.611,522.208c-2.76,1.693-5.52,3.386-8.28,5.079c-6.31,0.799-11.842,0.979-12.906-14.811
		c-0.458-6.802-3.885-13.036-5.811-19.682c9.261-14.179,14.335-34.137,21.756-50.855c9.19,0.026,18.868-2.062,23.522,17.534
		c-4.829,14.009-11.288,26.353-9.917,45.461C94.556,513.034,91.173,520.736,85.611,522.208z"/>
	<path fill="#8D8D8D" d="M483.546-257.076c-1.133,9.387-4.171,16.202-8.755,20.934c-6.764-8.271-11.538-6.473-13.666,8.713
		c-5.718,5.568-5.072,31.757-17.065,16.989c2.692-8.415,1.829-17.735,1.98-26.725c0.306-18.19,3.702-32.763,14.301-37.835
		C470.452-279.839,478.5-274.279,483.546-257.076z"/>
	<path fill="#363636" d="M801.753,447.447c-1.365-19.777-0.91-35.357,13.657-19.703c1.538,1.652,3.501,2.456,5.315,2.774
		c8.192,1.438,16.131,4.289,18.616,20.933c2.602,17.43-1.947,30.581-9.394,41.117c-2.183,1.886-3.759,0.114-5.157-2.738
		C821.723,467.629,810.053,460.49,801.753,447.447z"/>
	<path fill="#D2D2D2" d="M85.611,522.208c0.605-5.748,2.851-13.45,1.562-16.946c-14.015-38.004,8.329-30.454,15.752-41.414
		c1.39,0.23,2.362,1.495,2.916,3.796c-4.569,13.833,0.004,28.989-1.929,43.119c-1.397,5.999-2.801,12.08-4.205,18.161
		c-4.762,14.449-9.2,8.102-13.599-0.686C85.942,526.229,85.777,524.218,85.611,522.208z"/>
	<path fill="#D4D4D4" d="M801.753,447.447c12.037-6.178,19.011,12.377,27.945,20.04c5.72,4.906-1.524,13.408-2.969,20.292
		c-4.024,9.276-0.472,22.582-5.191,31.514c-2.656,3.99-5.246,8.4-9.076,4.259c-1.272-3.711-0.894-7.109,0.602-10.296
		C807.423,492.357,802.76,470.915,801.753,447.447z"/>
	<path fill="#282828" d="M60.359,791.386c2.939-0.208,5.879-0.416,8.818-0.624c5.72,8.924,6.277,19.352,2.793,30.955h0
		c-4.562,22.075,1.849,38.893,8.272,55.705c0.108,9.991,0.216,19.981,0.325,29.971c4.87,8.448,4.9,14.141-2.731,15.472
		C70.542,879.668,58.655,838.441,60.359,791.386z"/>
	<path fill="#F1F1F1" d="M813.799,523.482c1.567-3.412,3.133-6.824,4.7-10.236c4.719,4.195,5.675-16.097,11.358-5.631
		c0.059,1.665,0.103,3.331,0.132,4.997c-2.711,9.897-2.693,20.494-2.474,31.142c0.109,17.086-3.585,30.431-11.949,39.182
		c-5.309,4.815-5.309,4.815-5.837-13.906C806.2,552.439,807.516,537.245,813.799,523.482z"/>
	<path fill="#373737" d="M58.614,492.794c12.825-0.031,8.924,29.218,18.717,34.494c-14.182,9.425-22.455,33.832-35.757,45.486
		c0.49-13.333,5.014-23.281,8.804-33.845c0.105-11.915,5.473-13.137,10.052-15.965C63.874,512.121,55.039,503.662,58.614,492.794z"
		/>
	<path fill="#DFDFDF" d="M349.371-322.053c-0.992,13.768-5.578,20.969-13.052,21.064c-6.723,0.086-10.351-7.385-10.131-19.163
		c0.26-13.932,4.88-21.444,12.59-21.188C345.429-341.12,348.579-333.438,349.371-322.053z"/>
	<path fill="#DEDEDE" d="M733.86-321.446c5.641,1.819,12.444,3.291,12.37,17.796c-0.063,12.421-4.447,20.433-11.633,20.438
		c-6.553,0.004-10.347-7.369-10.994-18.787C722.904-314.369,726.599-320.647,733.86-321.446z"/>
	<path fill="#CCCCCC" d="M148.221-119.219c-5.4,14.931-0.459,29.966-0.14,44.955c0.492,3.489-0.017,6.383-2.119,6.845
		c-2.727,0.6-3.94-2.048-3.509-6.977c4.841-31.014-6.416-39.589-19.631-45.435c4.419-13.868,11.216,0.903,16.348-4.378
		c6.479-31.98,4.8-39.625-11.131-50.696c2.976-8.981,8.055-4.521,12.181-6.15c0.685-3.088,1.371-6.176,2.056-9.264
		c-1.104-5.355,0.268-6.282,2.823-5.094c1.869-0.236,3.738-0.471,5.607-0.707c4.492,9.206-1.039,14.372-2.639,21.122
		c-0.184,13.402-5.248,26.806,0.005,40.207C150.71-129.681,147.963-124.404,148.221-119.219z"/>
	<path fill="#B3B3B3" d="M142.453-74.396c1.854,2.943,3.731,2.888,5.627,0.132c1-2.826,2.089-5.563,2.982-8.494
		c2.386-7.831,3.194-18.543,9.765-18.791c1.145-0.043,3.262,4.213,3.355,6.675c0.4,10.564-3.81,16.596-7.941,22.231
		c-2.603,3.55-5.471,6.472-8.22,9.68c-8.796,0.768-18.775,6.934-22.41-15.841C131.637-82.41,137.312-81.706,142.453-74.396z"/>
	<path fill="#AFAFAF" d="M937.313,180.392c6.741,3.426,8.448-6.899,11.499-13.636c2.183-4.821,3.853-13.155,8.432-5.653
		c3.931,6.439,3.748,14.14-0.723,18.592c-6.875,6.847-10.585,28.826-21.842,15.967c-2.688-3.07-6.137-6.787-5.171-13.33
		C930.905,172.876,934.483,178.888,937.313,180.392z"/>
	<path fill="#B7B7B7" d="M815.56,346.605c-4.72-5.37-9.364-4.177-13.969,0.517c-1.438-0.255-3.515-2.402-3.107-3.587
		c5.659-16.417,3.295-35.971,6.684-53.185c7.077,0.714,9.255,9.78,10.658,20.168c0.22,15.011,14.698,13.74,11.541,32.613
		C823.874,349.16,819.449,344.937,815.56,346.605z"/>
	<path fill="#B1B1B1" d="M139.579-33.854c15.418,8.165,23.513-5.464,27.869-30.211c2.263-1.969,5.904-6.376,4.413,3.412
		c-2.532,16.629-6.666,32.049-15.291,41.804C139.655-13.713,139.538-13.816,139.579-33.854z"/>
	<path fill="#B5B5B5" d="M836.103,323.245c-0.358-2.581-0.716-5.163-1.079-7.744c0.041-5.01,0.087-10.019,0.133-15.028
		c-5.287-8.438-6.904-16.893-0.039-25.392c2.005-1.317,4.009-2.634,6.013-3.943c1.878,5.972,3.794,12.526,2.673,19.167
		c-2.688,15.913,2.431,23.317,9.02,29.674c-1.212,8.597-1.212,8.597-8.867,6.044C841.339,325.098,838.721,324.172,836.103,323.245z"
		/>
	<path fill="#D5D5D5" d="M259.077-260.145c-0.805,8.734-2.832,16.162-8.351,16.876c-4.703,0.608-6.346-5.596-6.451-12.953
		c-0.136-9.462,2.006-16.587,7.762-16.768C256.315-273.124,258.525-267.782,259.077-260.145z"/>
	<path fill="#313131" d="M872.461,983.814c-7.315-0.813-10.981-7.599-9.381-20.743c1.365-11.206,2.76-22.85,5.671-32.868
		c2.761-9.505,4.828-1.383,6.443,3.438C871.452,949.868,871.386,966.741,872.461,983.814z"/>
	<path fill="#868686" d="M799.034,533.299c-7.301,21.165-19.385,32.196-30.278,45.641c-2.815,3.474-4.039-0.055-3.592-5.43
		c11.218-15.524,22.435-31.047,33.653-46.57c0.765,1.334,1.052,2.721,0.861,4.161C799.485,532.566,799.27,533.299,799.034,533.299z"
		/>
	<path fill="#898989" d="M799.034,533.299c-0.072-2.119-0.144-4.237-0.216-6.357c4.042-6.937,9.04-10.663,14.246-13.686
		c0.244,3.409,0.488,6.818,0.733,10.226c-1.355,15.182-2.711,30.364-4.067,45.548c-1.197,2.36-2.682,7.036-3.54,6.691
		c-4.629-1.865-2.735-8.587-2.434-13.79C804.378,551.159,811.01,537.338,799.034,533.299z"/>
	<path fill="#E3E3E3" d="M653.338-262.17c-0.258,7.838-2.763,12.493-6.813,13.42c-4.897,1.121-8.154-3.357-8.389-12.376
		c-0.191-7.332,1.762-13.237,6.31-13.608C649.18-275.12,652.206-270.574,653.338-262.17z"/>
	<path fill="#B2B2B2" d="M863.821,295c-3.056-2.626-6.835-3.221-8.497-9.761c0.302-3.643,1.375-5.947,3.478-6.46
		c4.525,2.876,8.934,2.621,13.506-0.316c4.033-2.591,9.228-4.207,9.987,6.009c0.747,10.052-4.596,10.728-8.799,11.039
		C870.281,295.749,867.047,295.199,863.821,295z"/>
	<path fill="#868686" d="M875.268,729.892c-0.703,4.74-0.889,11.257-4.682,10.278c-7.539-1.945-14.988-5.014-22.536-12.757
		c8.924-2.29,17.849-4.581,26.772-6.871C874.971,723.659,875.119,726.775,875.268,729.892z"/>
	<path fill="#DFDFDF" d="M862.112,425.705c-0.287-7.113,1.315-11.654,5.133-12.462c4.854-1.027,8.08,3.336,8.802,11.824
		c0.621,7.304-1.179,13.71-5.652,13.999C865.66,439.37,863.098,433.429,862.112,425.705z"/>
	<path fill="#B6B6B6" d="M787.679,325.935c0.912,13.01-0.745,26.685,3.118,38.933c0.735,1.444,0.946,2.825,0.633,4.143
		c-0.305,1.285-0.591,1.928-0.862,1.928c-1.913,1.519-3.825,3.039-5.738,4.551c-2.072-10.014-1.967-21.054-5.409-30.575
		c-3.147-8.704-2.56-17.646,2.656-24.167C783.945,322.477,785.812,324.206,787.679,325.935z"/>
	<path fill="#D3D3D3" d="M890.686,126.199c-4.497-1.257-7.486-6.094-7.261-14.662c0.2-7.612,3.367-11.592,7.473-11.61
		c4.611-0.021,6.285,5.644,6.309,13.074C897.232,120.49,895.519,125.653,890.686,126.199z"/>
	<path fill="#D2D2D2" d="M14.393,180.011c-0.372,8.127-2.905,12.43-7.242,12.428c-4.314-0.002-7.168-4.189-7.194-12.23
		c-0.023-7.198,2.857-10.192,6.471-10.555C10.554,169.238,13.8,171.572,14.393,180.011z"/>
	<path fill="#A9A9A9" d="M117.604-249.325c-7.463,9.092-13.776,9.775-19.879,0.459c-1.536-2.344-1.129-6.891,0.671-8.68
		C105.749-264.856,111.243-258.139,117.604-249.325z"/>
	<path fill="#AEAEAE" d="M867.986,256.042c-2.399-12.567-4.804-24.065-6.736-35.813c-0.811-4.928-0.397-10.69,3.326-11.489
		c2.632-0.565,4.27,3.291,4.907,7.516C871.454,229.335,872.209,242.392,867.986,256.042z"/>
	<path fill="#323232" d="M105.841,467.645c-0.973-1.271-1.947-2.542-2.918-3.804c-5.935-12.547-14.889-15.08-22.552-21.902
		C97.601,429.266,104.896,436.629,105.841,467.645z"/>
	<path fill="#B2B2B2" d="M858.802,278.779c-1.159,2.153-2.319,4.306-3.478,6.46c-2.728-8.455-5.455-16.911-8.181-25.366
		c1.054-5.522,1.627-12.362,6.101-11.351c3.073,0.694,5.025,5.318,5.429,10.353C859.195,265.385,858.802,272.133,858.802,278.779z"
		/>
	<path fill="#AFAFAF" d="M136.46-231.518c0.177-3.291,0.154-6.666,0.571-9.855c0.927-7.082,1.503-17.383,7.041-14.387
		c6.477,3.504,3.408,13.491,1.716,20.733c-1.581,6.768-4.009,12.898-6.064,19.309C132.99-217.222,134.743-224.382,136.46-231.518z"
		/>
	<path fill="#B5B5B5" d="M790.568,370.939c0.075-2.016,0.15-4.031,0.227-6.059c1.788-1.386,3.574-2.76,5.36-4.136
		c1.814,0.368,3.653,0.508,5.435,1.157c3.697,1.346,8.177,3.747,7.21,11.652c-1.12,9.161-6.062,8.928-10.133,6.154
		C795.767,377.732,793.254,373.927,790.568,370.939z"/>
	<path fill="#212121" d="M877.991,811.415c0.67,0.534,1.371,0.861,2.101,0.979c2.542,24.948,3.54,49.918,0.341,74.95
		C876.206,862.389,877.641,836.846,877.991,811.415z"/>
	<path fill="#2E2E2E" d="M77.836,922.865c3.28-3.806,3.835-9.163,2.729-15.468c7.67,0.39,9.106,11.123,9.276,20.953
		c0.191,11.059-5.594,8.757-9.538,9.845C77.833,933.941,77.733,928.456,77.836,922.865z"/>
	<path fill="#B3B3B3" d="M776.445,396.562c0.964-1.407,1.929-2.814,2.894-4.213c1.855-0.018,3.717-0.236,5.564-0.03
		c3.786,0.424,8.261,0.986,8.044,9.921c-0.219,9.035-4.767,9.004-8.493,8.316c-2.717-0.502-5.35-2.464-8.02-3.775
		C776.438,403.375,776.442,399.968,776.445,396.562z"/>
	<path fill="#C7C7C7" d="M829.857,507.615c-4.216-0.932-5.622,16.436-11.357,5.628c-1.876-13.301-5.799-28.741,8.23-25.464
		c1.073,1.596,2.145,3.193,3.218,4.789C828.656,497.56,828.591,502.574,829.857,507.615z"/>
	<path fill="#B6B6B6" d="M148.067-174.999c0.88-7.038,1.761-14.077,2.64-21.119c4.684-9.233,9.365-22.121,14.076-0.048
		C159.82-187.558,154.371-180.191,148.067-174.999z"/>
	<path fill="#B3B3B3" d="M843.957,326.025c2.954-2.013,5.908-4.025,8.865-6.041c1.798-0.027,3.594-0.051,5.39-0.078
		c2.402,3.937,5.495,7.778,3.262,14.587c-2.031,6.191-5.593,6.143-8.607,3.221C849.66,334.606,846.907,329.985,843.957,326.025z"/>
	<path fill="#F1F1F1" d="M60.43,522.964c-1.459,9.164-5.618,12.843-10.052,15.965c-5.105-3.558-5.784-9.871-2.769-17.193
		C52.034,510.989,56.264,518.514,60.43,522.964z"/>
	<path fill="#AEAEAE" d="M140.219-181.055c-3.57,5.175-7.889,5.568-12.18,6.148c-3.34-2.436-7.789-4.2-5.34-13.219
		c1.639-6.037,5.357-6.212,8.402-3.532C134.33-188.819,137.195-184.646,140.219-181.055z"/>
	<path fill="#B2B2B2" d="M164.966,1.282c4.139,8.001,0.315,11.393-2.731,15.232c-4.474,0.087-10.87,1.338-9.486-10.355
		C154.098-5.231,160.064-3.157,164.966,1.282z"/>
	<path fill="#ACACAC" d="M133.722-211.268c-2.705,0.385-5.424,1.281-8.112,1.037c-4.268-0.387-11.066,2.474-11.059-8.081
		c0.008-11.711,6.685-6.726,10.841-7.029C128.612-221.495,135.849-225.322,133.722-211.268z"/>
	<path fill="#D3D3D3" d="M133.722-211.268c-2.776-4.694-5.553-9.389-8.33-14.078c3.69-2.052,7.381-4.11,11.069-6.17
		c1.086,5.264,2.173,10.53,3.261,15.797c3.157,5.602,4.741,12.547,5.377,20.302c-0.941,1.7-1.882,3.397-2.823,5.095
		C139.375-197.237,138.293-206.55,133.722-211.268z"/>
	<path fill="#AFAFAF" d="M38.189,379.949c-2.224,14.4-5.389,26.817-16.794,13.148C27.655,387.653,33.863,387.433,38.189,379.949z"/>
	<path fill="#A9A9A9" d="M779.528,442.361c-6.432-0.55-12.757-1.611-17.214-11.621C768.409,432.897,778.85,414.316,779.528,442.361z
		"/>
	<path fill="#B3B3B3" d="M139.169-124.209c-5.072,6.016-10.782,4.343-16.349,4.379c-2.27-4.19-2.994-9.34-2.889-15.006
		C127.473-137.887,133.129-129.927,139.169-124.209z"/>
	<path fill="#ADADAD" d="M827.453,340.684c3.476,3.259,5.189,8.52,5.438,15.445c-6.643,1.915-12.371-1.54-17.328-9.526
		C819.095,341.846,823.231,340.986,827.453,340.684z"/>
	<path fill="#BDBDBD" d="M178.956,603.923c0.98-11.776,1.959-23.552,2.939-35.328c2.578-23.247,4.495-25.113,13.154-12.802
		c2.993,15.544,2.188,31.7,2.2,47.647c0.109,143.347-0.021,286.695,0.12,430.042c0.02,20.13-0.915,41.321,11.022,53.719
		c19.061,9.534,38.729,14.691,58.197,14.849c133.723,1.085,267.45,0.787,401.176,0.322c18.712-0.065,37.01-10.938,55.875-9.67
		c4.089,0.193,8.134-2.143,12.253-1.078c10.579,8.503,16.567,23.168,17.992,43.864c-3.768,1.626-7.537,3.252-11.305,4.878
		c-1.831-2.314-3.936-3.382-6.079-4.327c-5.999-1.91-12.566,2.435-18.028-5.391c-4.632-7.438-10.081-6.996-15.911-7.08
		c-154.128-2.229-308.261,0.579-462.39-0.993c-5.793-0.059-12.569-0.906-16.621,10.177c-4.026,3.721-8.355,2.53-12.61,2.456
		c-23.641-6.304-31.015-17.053-32.748-61.733c-1.322-34.072-1.882-67.869-7.597-100.709c0.12-6.324-0.054-12.652,0.37-18.965
		c10.753-34.909,4.155-72.431,4.488-108.602c0.665-72.076-2.664-144.246,1.616-216.268
		C177.566,620.555,179.09,612.442,178.956,603.923z"/>
	<path fill="#C0C0C0" d="M753.883,1135.488c-10.825-4.062-14.285-19.734-17.493-35.802c-4.378-9.355-3.384-20.787-3.41-31.508
		c-0.252-103.688-0.258-207.378-0.008-311.067c0.036-14.938-0.89-30.87,6.948-41.842c0.908-0.1,1.814-0.063,2.718,0.112
		c2.087,16.372,1.605,32.898,1.55,49.563c-0.311,94.152-0.131,188.308,0.105,282.461c0.415,3.362,2.118-0.954,0.369,0.276
		c-0.435,0.306-0.69-0.33-0.679-1.905c0.706-97.621-1.088-195.265,0.876-292.878c0.248-12.333-2.495-24.83,0.65-37.021
		c5.755,0.134,11.51,0.268,17.265,0.402c7.107,10.457,6.33,25.257,6.42,39.267c0.412,64.125,1.369,128.312-4.721,191.927
		c-4.576,59.235,0.074,118.86-2.335,178.187C759.387,1128.936,756.635,1132.212,753.883,1135.488z"/>
	<path fill="#D3D3D3" d="M142.337,1105.042c-3.125-38.54-4.175-77.005-0.13-115.66c1.704-16.284-0.764-31.795-5.431-46.072
		c1.55-0.318,3.099-0.636,4.649-0.954c9.402-11.974,19.93-4.677,29.904-4.936c7.024-0.183,5.385,13.58,7.704,21.011
		c0,5.023,0,10.047,0,15.07c-1.769,9.137-2.962,18.406-2.002,28.175c2.362,14.754-2.974,26.389-4.921,39.399
		c-5.024,22.244-2.955,47.781-9.946,69.107c-0.069,8.658-0.138,17.317-0.207,25.975c-6.508,6.321-12.407,7.118-16.775-5.968
		c0.396-4.359,12.205-4.451,1.449-13.357C144.619,1115.165,143.739,1109.085,142.337,1105.042z"/>
	<path fill="#B4B4B4" d="M722.902,1130.452c5.759,0.228,11.652-1.005,16.88,5.005c-5.32,5.052-11.055,2.454-16.569,2.459
		c-169.258,0.164-338.516,0.107-507.774,0.253c-5.535,0.005-11.251-2.328-16.626,2.25c-5.834-0.195-11.792,1.09-17.169-4.606
		c8.436-19.425,18.681-7.907,28.402-5.355c3.758-0.004,7.517-0.008,11.275-0.012c8.947-14.186,20.164-7.883,29.846-7.757
		c147.931,1.922,295.866-2.09,443.793,1.348C704.481,1124.258,714.155,1120.192,722.902,1130.452z"/>
	<path fill="#C0C0C0" d="M198.813,1140.419c6.971-7.103,14.627-4.817,22.044-4.822c172.975-0.123,345.95-0.119,518.925-0.139
		c0.932,1.637,1.865,3.275,2.796,4.91C561.323,1140.384,380.068,1140.402,198.813,1140.419z"/>
	<path fill="#2E2E2E" d="M829.874,913.402c-12.336,13.355-18.356,37.547-28.791,54.182c-2.308,3.679-2.364,9-2.278,14.091
		c0.733,43.195-3.12,85.7-5.949,128.359c-4.141,14.838-3.018,40.336-19.257,30.677c14.507-32.519,16.84-71.248,16.831-110.682
		c-0.009-39.126,2.687-75.49,22.679-99.794c4.951-6.019,6.034-15.999,7.429-26.076c1.866-13.482,5.641-14.916,9.501-1.503
		C831.69,906.323,831.52,909.9,829.874,913.402z"/>
	<path fill="#C0C0C0" d="M210.046,1130.458c-9.49,1.36-19.351-3.608-28.4,5.353c-8.605-1.745-11.619-13.4-14.196-25.828
		c-1.404-3.16-2.274-6.648-2.065-10.795c4.626-32.807,5.782-66.537,8.157-99.946c0.936-9.196,2.412-18.02,5.492-25.741
		c1.124,32.375,0.636,65.291,3.928,96.938c2.262,21.745,3.203,51.556,23.061,50.556
		C207.314,1120.931,208.703,1127.158,210.046,1130.458z"/>
	<path fill="#3C3C3C" d="M753.755,1189.862c-4.201,0-8.423,0.468-12.596-0.144c-3.498-0.514-8.63,3.438-10.061-4.208
		c-1.644-8.781,3.221-13.867,6.967-16.009c11.012-6.295,21.775-14.604,33.81-13.847c6.255,0.393,8.108,6.136,8.335,15.658
		c0.249,10.423-1.259,18.44-8.256,18.454c-6.066,0.012-12.133,0.003-18.199,0.003C753.755,1189.8,753.755,1189.831,753.755,1189.862
		z"/>
	<path fill="#3C3C3C" d="M913.822,1163.961c1.67,10.884-1.782,12.59-4.952,14.04c-11.313,5.173-22.653,10.169-34.022,14.922
		c-1.629,0.681-4.133,0.856-5.087-0.827c-1.917-3.385-0.767-8.12,0.651-11.334c8.914-20.219,21.333-29.521,34.946-33.427
		C912.851,1145.185,911.15,1160.117,913.822,1163.961z"/>
	<path fill="#3B3B3B" d="M145.182,1130.188c5.801,0.088,11.989-3.328,16.775,5.968c0.658,14.427,6.747,19.021,13.031,23.366
		c2.141,1.48,4.938,2.763,4.696,7.954c-0.301,6.462-3.628,7.205-6.311,7.446c-6.466,0.582-14.257,3.945-18.071-8.034
		c-5.048-15.856-7-0.407-10.434,2.603C141.04,1155.679,142.194,1142.921,145.182,1130.188z"/>
	<path fill="#3A3A3A" d="M74.675,1129.81c4.782-0.089,9.565-0.177,14.347-0.266c2.735,13.87,6.264,26.181,15.35,29.783
		c2.572,1.019,5.941,3.784,4.694,9.939c-0.559,2.759-3.705,4.997-5.794,5.37c-6.937,1.239-14.754,3.954-19.185-8.892
		c-5.383-15.605-6.128,0.778-9.567,4.196C69.951,1156.107,71.68,1142.986,74.675,1129.81z"/>
	<path fill="#F8F8F8" d="M168.151,1099.837c-0.232,3.383-0.463,6.766-0.698,10.148c-1.765,0.065-3.527,0.131-5.289,0.197
		c-1.368-24.256,0.633-47.682,5.369-70.437C171.828,1059.64,173.139,1079.634,168.151,1099.837z"/>
	<path fill="#8E8E8E" d="M796.08,796.401c-0.802-1.843-1.603-3.686-2.405-5.529c1.685-25.112,1.987-50.21-0.223-75.285
		c-0.419-1.329-0.731-2.735-0.936-4.217c0.56-5.769,2.79-9.195,5.34-12.05c5.779-2.264,11.583-4.159,17.452-5.44
		c4.884,6.738,4.03,14.012,0.631,21.525c0.408,2.035,0.815,4.07,1.223,6.105c1.412,2.543,3.827,4.579,1.416,9.051
		c0.05,8.24,0.092,16.479,0.151,24.719C818.992,792.3,816.441,796.935,796.08,796.401z"/>
	<path fill="#363636" d="M829.874,913.402c0.055-3.582,0.11-7.163,0.165-10.745c0.9,0.39,2.491,0.466,2.597,1.218
		c2.406,17.045,15.387,26.548,10.019,49.607c-3.435,14.756,0.336,29.343,5.657,40.828c3.528,7.615,5.663,13.007,0.659,20.443
		C833.765,986.344,833.519,948.84,829.874,913.402z"/>
	<path fill="#2C2C2C" d="M818.578,730.561c-0.474-3.019-0.948-6.037-1.419-9.054c9.524-3.012,14.047,3.546,13.424,21.483
		c-0.435,12.528-0.185,25.133-0.24,37.704C821.276,767.879,827.582,743.425,818.578,730.561z"/>
	<path fill="#BFBFBF" d="M765.526,615.318c-4.966,17.23-2.359,35.72-2.769,53.706c-6.739,3.898-13.564,6.699-20.726,5.128
		c-2.735-16.119-2.019-32.674-1.691-49.094c0.186-9.292,0.397-18.17-3.649-25.302C747.75,596.292,755.997,609.637,765.526,615.318z"
		/>
	<path fill="#B7B7B7" d="M745.51,715.878c4.582,58.215-1.749,116.331-0.37,174.652c1.398,59.113,0.309,118.415-2.502,177.603
		c0-117.583,0-235.167,0-352.75C743.596,715.547,744.553,715.713,745.51,715.878z"/>
	<path fill="#D3D3D3" d="M724.727,708.411c-9.756,2.395-19.579,4.971-28.27-6.5c-1.718-2.267-3.709-6.165-3.822-9.502
		c-0.159-4.676,2.916-5.226,5.061-6.853c9.284-7.043,18.92-6.298,28.62-4.939C725.787,689.883,725.257,699.147,724.727,708.411z"/>
	<path fill="#858585" d="M822.277,665.65c1.185-23.753,15.681-27.948,21.29-46.792c-9.118,30.166-7.236,62.012-5.454,97.415
		c-7.09-11.17-4.219-23.238-7.551-31.326C823.742,684.135,824.959,672.192,822.277,665.65z"/>
	<path fill="#EDEDED" d="M822.277,665.65c7.453-0.065,7.365,10.314,8.285,19.297c-0.037,17.644,0.479,36.146-14.622,30.457
		c-0.892-6.921-1.784-13.841-2.676-20.762c-1.911-3.598-1.934-7.008,0.314-10.193C816.477,678.183,819.377,671.916,822.277,665.65z"
		/>
	<path fill="#7B7B7B" d="M765.526,615.318c-10.576,0.579-18.851-12.598-28.834-15.563c-5.116-6.125-9.789-13.635-15.952-16.497
		c-1.331-3.864-8.007,1.886-5.227-9.373c8.156,1.334,15.276,8.046,22.289,14.709c13.475,12.804,26.915,24.318,42.724,14.006
		c2.472-1.612,4.714-0.689,4.391,5.66C778.453,610.612,771.989,612.965,765.526,615.318z"/>
	<path fill="#7C7C7C" d="M799.017,705.332c-2.166,2.011-4.332,4.023-6.5,6.036c-2.339-0.118-4.676-0.237-7.013-0.356
		c-13.423,0.001-26.847,0.001-40.271,0.001c-0.092-2.561-0.184-5.122-0.276-7.684c13.29-1.06,26.579-2.119,39.869-3.179
		C790.33,695.042,795.644,691.612,799.017,705.332z"/>
	<path fill="#7F7F7F" d="M799.017,705.332c-4.73-1.726-9.46-3.453-14.191-5.18c7.799-15.766,19.298-9.665,28.748-15.698
		c-0.102,3.395-0.207,6.793-0.311,10.19C810.326,705.991,804.529,705.048,799.017,705.332z"/>
	<path fill="#848484" d="M815.566,582.936c3.297-13.736,9.939-24.182,11.949-39.183c5.039,16.223-2.481,28.557-4.706,42.09
		C821.436,594.187,817.722,587.095,815.566,582.936z"/>
	<path fill="#7E7E7E" d="M788.04,660.628c5.657-14.037,4.577-30.563,5.318-46.417c3.786,10.323,3.015,22.225,3.224,33.556
		C796.759,657.32,794.395,663.868,788.04,660.628z"/>
	<path fill="#B9B9B9" d="M204.288-150.311c-13.473,5.015-13.832,23.093-13.818,42.723c0.139,192.525,0.098,385.05,0.083,577.575
		c-0.001,12.606-0.207,25.212-0.317,37.817c-1.762,3.098-3.568,3.134-5.418,0.257c-3.481-9.908-2.93-21.042-2.931-31.954
		c-0.018-181.284-0.262-362.57,0.306-543.848c0.071-22.592,1.214-45.95,5.076-68.178C190.077-152.075,195.342-158,204.288-150.311z"
		/>
	<path fill="#D6D6D6" d="M184.819,508.061c1.806-0.085,3.613-0.17,5.418-0.256c0.736,15.213,5.089,30.309,0.462,45.693
		c-4.479,2.121-3.878,13.809-8.804,15.097c-1.943-1.568-3.887-3.135-5.832-4.699C169.014,540.244,186.166,528.833,184.819,508.061z"
		/>
	<path fill="#C0C0C0" d="M179.033,958.43c-4.581-16.355-12.934-15.422-21.244-15.236c-5.45,0.122-10.906-0.531-16.362-0.838
		c0.627-1.106,1.229-2.257,1.803-3.456c3.852-9.556,9.359-5.052,14.254-5.23c5.532-0.202,11.245,1.812,15.953-5.671
		c0.317-9.207,0.096-18.25-2.515-26.562c-11.652-7.415-6.017-26.396-8.34-40.085c3.695-39.346-2.786-78.124-1.949-117.41
		c0.7-32.886-0.533-65.935,4.964-97.987c4.453-14.009,8.906-28.019,13.359-42.03c3.434,9.905,2.889,21.007,2.892,31.893
		c0.025,83.266,0.223,166.535-0.116,249.796C181.635,909.897,179.977,934.159,179.033,958.43z"/>
	<path fill="#373737" d="M156.743,806.351c5.214,17.327,8.144,35.812,8.717,55.491c1.821,13.199,3.642,26.399,5.463,39.596
		c-1.169,7.31-2.444,15.008-6.997,17.312c-5.707,2.888-11.063-3.943-8.746-12.141c7.119-25.189,3.041-49.069,0.575-73.761
		C154.895,824.237,153.114,814.753,156.743,806.351z"/>
	<path fill="#323232" d="M91.771,781.704c5.136-19.193,1.561-40.98,5.585-60.504c3.66-5.91,7.309-7.139,10.939,0.081
		c1.978,4.096,3.42,8.548,2.947,14.276c-11.635,5.3-7.599,23.407-9.407,36.823c-0.968,7.187-1.46,15.841-6.392,17.842
		C92.307,791.495,92.166,785.773,91.771,781.704z"/>
	<path fill="#2E2E2E" d="M173.439,927.999c1.795,11.182-2.678,10.384-6.392,10.516c-7.938,0.282-15.879,0.273-23.817,0.384
		c-6.819-0.59-13.639-1.182-20.46-1.774c-0.042-1.855-0.084-3.71-0.126-5.564C139.575,930.373,156.507,929.186,173.439,927.999z"/>
	<path fill="#2E2E2E" d="M71.97,821.717c-0.931-10.316-1.862-20.632-2.793-30.952c3.552-0.021,7.104-0.038,10.654-0.06
		c4.35,1.986,8.942,4.039,3.354,13.625C79.618,810.449,75.72,815.943,71.97,821.717z"/>
	<path fill="#2E2E2E" d="M80.242,877.422c-11.578-14.343-13.362-33.377-8.272-55.705C69.747,842.671,78.799,858.224,80.242,877.422z
		"/>
	<path fill="#F6F6F6" d="M108.295,721.282c-3.646-0.027-7.293-0.054-10.939-0.081c-1.48-50.492-7.151-100.044-10.366-150.141
		c-0.908-14.147-0.621-28.541-0.882-42.821c4.509,1.861,9.008,4.381,13.601,0.684c6.582,57.827,8.799,116.428,9.739,175.268
		C109.542,710.066,110.287,715.926,108.295,721.282z"/>
	<path fill="#878787" d="M133.637,641.323c-0.873-0.594-1.701-1.348-2.483-2.266c-2.789-12.172-4.091-24.38-0.418-41.313
		C135.047,614.582,136.641,627.424,133.637,641.323z"/>
	<path fill="#464646" d="M57.501,650.265c-1.868-5.141-3.736-10.283-5.604-15.424c1.655-7.264,5.146-11.186,8.581-15.206
		C61.26,630.404,67.257,642.803,57.501,650.265z"/>
	<path fill="#BEBEBE" d="M564.986-180.58c9.636,4.824,8.269,18.583,7.931,31.506c-5.723,13.046-14.364,9.588-21.401,9.503
		c-58.375-0.704-116.754,1.387-175.126-0.661c-6.262-0.22-12.272,0.088-16.767-9.4c0.226-12.496-2.498-27.547,8.295-30.889
		c24.362-4.028,48.725-3.963,73.088-0.049c16.973,0.008,33.947,0.015,50.92,0.023C516.28-184.527,540.633-184.481,564.986-180.58z"
		/>
	<path fill="#787878" d="M362.696-130.317c28.902,0.038,57.819-2.561,86.699,1.523c2.524,5.413,1.769,8.167-2.109,8.389
		c-27.001-6.891-54.155-1.324-81.225-3.057c-8.26-0.529-14.075-3.188-12.162-21.322
		C356.463-139.238,357.865-131.414,362.696-130.317z"/>
	<path fill="#727272" d="M483.435-129.714c24.568-0.358,49.136-0.672,73.703-1.106c5.523-0.097,11.19,1.193,16.295-4.247
		c0.97,3.397,1.94,6.795,2.91,10.192c-29.869,0.349-59.737,0.698-89.606,1.047C483.824-122.511,482.964-124.907,483.435-129.714z"/>
	<path fill="#ECECEC" d="M461.125-227.43c-3.193-9.012-4.623-17.948,0.154-26.861c2.613-4.876,5.947-4.742,8.917-2.882
		c5.737,3.594,4.148,13.215,4.595,21.03C470.948-229.632,466.148-227.968,461.125-227.43z"/>
	<path fill="#898989" d="M564.986-180.58c-24.354,0.012-48.708,0.024-73.06,0.035C516.279-188.63,540.632-188.544,564.986-180.58z"
		/>
	<path fill="#898989" d="M441.007-180.569c-24.363,0.017-48.727,0.033-73.089,0.049C392.28-188.67,416.643-188.531,441.007-180.569z
		"/>
	<path fill="#B1B1B1" d="M57.278-80.472c7.518,10.394,10.808-1.896,14.97-10.707c2.156-4.563,4.795-8.843,8.257-3.563
		c3.199,4.879,2.049,10.1,0.029,15.462c-7.281,19.33-19.872,25.389-26.742,12.724c-1.679-3.096-3.325-6.27-1.891-10.832
		C52.891-80.54,54.646-81.59,57.278-80.472z"/>
	<path fill="#B1B1B1" d="M148.221-119.219c-2.157-5.126-1.391-10.343-0.149-15.574c2.521-5.975,4.558-13.392,9.545-13.194
		c2.05,0.081,3.464,3.465,3.178,7.019C159.755-128.065,153.318-124.808,148.221-119.219z"/>
	<path fill="#AEAEAE" d="M832.959-221.019c-0.086,1.691-0.172,3.381-0.258,5.071c-6.335,5.791-11.08,26.461-23.201,2.384
		C820.661-205.963,824.109-228.276,832.959-221.019z"/>
	<path fill="#C0C0C0" d="M722.902,1130.452c-167.194-0.002-334.387-0.004-501.581-0.006c0.853-9.929,4.262-14.52,9.67-14.8
		c3.749-0.195,7.501-0.348,11.251-0.349c151.951-0.017,303.901-0.088,455.852,0.174
		C707.046,1115.486,717.453,1110.516,722.902,1130.452z"/>
	<path fill="#C0C0C0" d="M201.618,1105.206c175.577,0.129,351.155,0.257,526.73,0.388c-5.629,5.7-11.816,4.604-17.881,4.605
		c-163.677,0.037-327.355,0.036-491.032,0.001C213.367,1110.2,207.175,1111.243,201.618,1105.206z"/>
	<path fill="#B5B5B5" d="M168.151,1099.837c-0.205-20.032-0.41-40.065-0.616-60.095c0.674-14.136,6.66-25.735,6.006-40.505
		c4.258,30.161-2.06,60.444,0.261,90.718C174.168,1094.734,170.765,1097.793,168.151,1099.837z"/>
	<path fill="#B2B2B2" d="M325.394,827.937c15.257,13.901,23.895,35.489,22.09,66.903c-1.71,29.757-11.939,49.063-27.051,54.235
		c-15.2,5.202-30.151-7.487-38.111-32.347c-7.294-22.78-5.618-47.417,4.814-70.162c1.49-3.25,3.116-6.299,4.679-9.442
		C302.095,823.301,312.76,814.015,325.394,827.937z"/>
	<path fill="#B1B1B1" d="M347.916,262.847c-0.291,33.074-16.688,62.812-34.033,61.726c-20.808-1.303-36.387-28.718-35.991-63.33
		c0.365-31.813,16.953-60.967,34.785-61.137C330.989,199.931,348.2,230.575,347.916,262.847z"/>
	<path fill="#B1B1B1" d="M297.451,513.274c-23.792-33.988-26.32-74.375-6.449-103.041c13.298-19.184,29.553-20.055,42.664-2.286
		c13.472,18.257,17.598,48.352,10.434,76.447c-1.554,6.094-3.269,12.056-4.913,18.077c-1.708,1.914-3.413,3.831-5.118,5.749
		c-1.93,1.815-3.861,3.627-5.791,5.44C317.963,523.731,307.672,527.665,297.451,513.274z"/>
	<path fill="#B1B1B1" d="M306.026,624.543c27.477-6.482,43.167,34.956,41.821,64.317c-1.89,41.235-21.884,67.343-44.381,56.603
		c-4.895-2.337-9.497-6.656-14.234-10.062c-6.55-18.502-18.104-33.912-11.585-60.489l0.011-0.008
		C280.806,646.654,291.068,631.331,306.026,624.543z"/>
	<path fill="#8F8F8F" d="M396.033,902.808c-6.916,1.345-11.069-4.05-10.987-16.678c0.077-11.84,5.263-14.909,10.65-16.044
		c4.639-0.977,9.335-1.503,14.005-1.509c67.461-0.092,134.923-0.066,202.384-0.051c2.81,0.001,5.629-0.062,8.429,0.297
		c6.817,0.873,14.106,2.569,13.748,18.6c-0.317,14.156-6.861,16.272-13.395,16.247c-74.012-0.279-148.023-0.568-222.035-0.854
		c-3.168-14.27,2.084-14.965,7.582-15.042c49.592-0.699,99.203-1.297,148.766,0.547c12.165,0.452,24.633,3.725,37.016,5.043
		c-60.159-10.771-120.475-3.936-180.711-6.093C404.313,887.014,397.84,886.847,396.033,902.808z"/>
	<path fill="#949494" d="M396.033,902.808c-2.318-20.507,2.834-25.933,13.743-25.738c46.362,0.83,92.924-4.141,139.021,2.189
		c24.442,3.356,49.28,6.817,73.946,11.745c-4.841,8.892-10.515,6.466-15.776,6.477c-65.569,0.137-131.138,0.004-196.708,0.006
		c-4.027,0-8.592-3.151-11.427,5.328c0,0-1.4,0.19-1.4,0.19L396.033,902.808z"/>
	<path fill="#959595" d="M387.091,255.971c-3.4-24.177-1.898-27,14.301-26.885c4.714,5.796,10.03,2.811,15.028,2.829
		c64.7,0.236,129.401,0.156,194.101,0.157c3.282,0,6.566,0.126,9.845-0.019c5.069-0.225,10.375,1.454,10.475,11.968
		c0.102,10.744-5.837,11.468-10.404,12.854c-2.763,0.838-5.613,0.503-8.426,0.479C537.038,256.689,462.059,258.934,387.091,255.971z
		"/>
	<path fill="#898989" d="M387.091,255.971c9.681-8.655,20.155-5.867,30.288-5.93c64.195-0.396,128.391-0.104,192.587-0.384
		c5.645-0.025,12.083,3.685,17.436-6.537c-5.417-11.957-12.412-8.297-18.505-8.325c-62.321-0.292-124.643-0.141-186.964-0.239
		c-6.963-0.011-14.143,1.799-20.538-5.468c73.343-0.308,146.688-0.646,220.033-0.858c5.269-0.015,10.684,1.161,12.493,12.175
		c1.656,10.082-2.224,15.35-6.443,19.792c-2.544,2.886-5.402,2.217-8.176,2.218c-70.029,0.035-140.059,0.033-210.088,0.001
		c-2.775-0.001-5.628,0.684-8.205-2.035C395.812,264.582,391.127,263.581,387.091,255.971z"/>
	<path fill="#BCBCBC" d="M418.495,62.43c0.029-5.026,0.09-10.052,0.081-15.077c-0.015-8.953,0.525-17.121,7.011-17.841
		c5.682-0.63,7.097,5.812,7.493,14.219c0.155,3.298,0.437,6.742,3.7,8.266c5.987-7.862,10.569-22.672,19.928-22.64
		c2.209,0.008,5.074-0.042,6.47,2.239c2.103,3.437,0.343,8.223-1.455,10.602c-13.136,17.385-6.682,33.784,0.089,51.272
		c2.18,5.629,8.762,13.698,2.559,20.412c-4.241,4.59-11.013,3.794-14.936-6.391c-0.265-0.688-0.542-1.379-0.741-2.13
		c-5.6-21.067-10.183-28.622-16.775,0.049c-2.767,12.033-10.177,17.907-13.616-2.57C416.355,89.339,410.483,75.778,418.495,62.43z"
		/>
	<path fill="#868686" d="M386.452,680.468c-3.963-19.48,2.721-24.395,11.215-24.769c15.934-0.701,31.883-0.306,47.825-0.305
		c57.207,0.003,114.414-0.171,171.62,0.175c16.55,0.1,19.994,8.658,13.314,30.259c-3.374,2.369-5.929-2.735-9.009-3.185
		c-20.829-16.83-42.83-10.328-64.331-9.154c-45.644,2.494-91.232-2.436-136.853-1.434c-6.604,0.145-12.396,1.71-16.513,11.902
		C397.496,690.377,391.77,688.677,386.452,680.468z"/>
	<path fill="#BDBDBD" d="M362.102,93.214c-0.462,7.766,3.231,17.468-2.253,22.834c-4.765,4.662-8.706,0.297-12.288-6.395
		c-5.052-9.439-10.826-7.736-16.482-1.375c-4.447,5.001-9.686,10.802-13.899,2.917c-3.741-7.002,0.709-15.601,2.152-23.156
		c2.113-11.065,5.465-21.543,6.857-32.841c2.835-23.02,9.971-30.413,22.216-23.291C362.535,45.448,362.44,69.243,362.102,93.214z"/>
	<path fill="#BCBCBC" d="M607.43,77.563c-0.993,34.119-13.702,48.518-31.304,35.511c-4.549-3.362-8.647-8.632-8.973-17.525
		c-0.375-10.24,5.762-8.813,9.076-12.44c2.862,1.796,4.008,0.545,2.746-4.987c-6.685-7.216-14.978-12.835-11.174-31.703
		c3.521-17.464,11.802-19.112,20.491-18.749c5.251,0.22,9.989,3.077,13.939,9.54c1.745,2.715,3.645,5.348,3.537,10.059
		c-0.167,7.238-2.617,10.05-6.371,10.102c1.699,1.211,3.5,1.84,4.919,4.322C606.85,66.126,604.813,73.295,607.43,77.563z"/>
	<path fill="#BCBCBC" d="M384.991,27.273c10.435,1.523,21.327,1.576,24.978,24.982c-0.277,3.257-3.193,6.693-2.553,7.393
		c11.456,12.528,6.463,27.583,2.337,42.594c-19.527,24.793-36.245,19.036-41.912-14.432c-2.121-5.061,10.65-2.334,1.58-13.161
		c-9.478-11.315-5.941-35.2,4.931-42.899C377.857,29.27,381.825,31.515,384.991,27.273z"/>
	<path fill="#8E8E8E" d="M386.452,680.468c5.092,2.612,10.19,5.924,15.2-0.444c4.029-10.065,10.404-7.605,15.632-7.731
		c50.457-1.215,100.913,4.771,151.391-0.648c14.51-1.558,29.099-3.081,43.68-1.748c5.053,0.462,10.371-1.473,14.77,5.11
		c1.099,3.606,2.199,7.211,3.299,10.819c-4.588,5.821-9.885,4.556-14.989,4.562c-70.421,0.083-140.843,0.148-211.264-0.079
		C397.879,690.289,390.664,693.493,386.452,680.468z"/>
	<path fill="#BDBDBD" d="M612.862,52.603c-4.483-15.068-2.701-24.308,7.495-24.645c9.289-0.307,18.588-0.112,27.876,0.354
		c3.828,0.192,7.745,2.136,8.321,10.428c0.596,8.575-2.626,12.091-6.842,12.208c-7.225,0.201-8.051,8.838-8.135,18.725
		c-0.071,8.347,0.05,16.71-0.187,25.04c-0.232,8.133,0.443,18.041-6.186,19.019c-6.084,0.898-7.828-6.849-8.363-16.003
		C626.499,78.372,624.202,60.968,612.862,52.603z"/>
	<path fill="#BBBBBB" d="M294.914,31.25c2.809,0,5.622-0.19,8.425,0.044c4.436,0.371,10.305-3.484,11.988,7.581
		c1.968,12.938-4.673,11.85-8.77,14.218c-5.036,2.91-5.764,10.273-5.923,18.041c-0.189,9.237-0.114,18.492-0.109,27.74
		c0.004,7.219-0.514,13.891-5.644,14.318c-5.092,0.424-7.678-4.523-8.384-13.375c-1.592-19.965,3.847-44.428-12.875-54.442
		c-3.687-2.208-1.062-14.091,4.513-14.906c5.559-0.813,11.184-0.178,16.78-0.178C294.914,30.611,294.914,30.931,294.914,31.25z"/>
	<path fill="#BCBCBC" d="M497.176,67.284c3.418-10.464-6.888-35.957,7.941-35.668c11.358,0.222,5.772,22.518,6.166,34.743
		c0.543,16.876,2.547,27.714,13.417,27.193c4.168-0.2,9.142,1.058,8.403,12.096c-0.609,9.098-4.907,8.639-8.725,8.557
		c-0.469-0.01-0.937-0.116-1.405-0.095C497.12,115.27,497.12,115.271,497.176,67.284z"/>
	<path fill="#BBBBBB" d="M556.468,70.964c0,9.994,0.172,20-0.052,29.978c-0.197,8.772-2.585,13.991-7.959,13.178
		c-4.611-0.698-6.351-5.285-6.278-13.299c0.167-18.323,0.066-36.654,0.239-54.977c0.086-9.127,1.576-17.037,7.865-16.3
		c5.625,0.66,6.129,8.696,6.268,16.432c0.15,8.322,0.034,16.658,0.034,24.989C556.547,70.964,556.507,70.964,556.468,70.964z"/>
	<path fill="#959595" d="M401.008,260.379c75.488-0.062,150.977-0.123,226.467-0.184c-4.772,4.588-9.986,3.746-15.095,3.75
		c-65.411,0.06-130.822,0.059-196.232,0.021C411.028,263.964,405.834,264.57,401.008,260.379z"/>
	<path fill="#B0B0B0" d="M536.985,716.135c-47.95,0.066-95.899,0.132-143.849,0.201c-6.327-15.089,2.169-8.868,4.309-8.666
		c46.75,4.414,93.529,0.864,140.287,1.926c9.619,0.218,19.24,0.032,28.86,0.032c0.048,2.169,0.096,4.338,0.144,6.508
		C556.819,716.135,546.902,716.135,536.985,716.135z"/>
	<path fill="#B2B2B2" d="M562.588,502.613c-6.639-5.816-13.772-4.121-20.749-4.136c-49.981-0.109-99.962-0.058-150.441-0.058
		c2.508-9.178,6.713-5.503,9.859-5.519c51.542-0.264,103.085-0.337,154.626,0.136c4.084,0.038,11.015-6.612,11.554,9.364
		C565.818,502.467,564.203,502.54,562.588,502.613z"/>
	<path fill="#A8A8A8" d="M489.085,291.028c-33.84-0.234-67.679-0.468-101.519-0.701c2.169-8.065,6.393-5.746,9.888-5.779
		c55.645-0.516,111.29-0.834,166.936-1.067c0.699-0.003,1.399,1.69,5.946,7.547C540.71,291.028,514.897,291.028,489.085,291.028z"/>
	<path fill="#A9A9A9" d="M387.478,923.282c2.094-8.488,6.348-5.484,9.801-5.494c53.288-0.164,106.576-0.146,159.864-0.118
		c4.648,0.002,9.414-0.724,13.5,4.676c-2.286,4.062-5.212,3.087-7.96,3.089c-56.135,0.046-112.27,0.056-168.405,0.031
		C391.932,925.465,389.595,925.509,387.478,923.282z"/>
	<path fill="#8D8D8D" d="M483.435-129.714c1.1,1.961,2.201,3.923,3.301,5.886c-13.12,35.125-27.512,36.373-39.451,3.424
		c0.704-2.798,1.407-5.595,2.11-8.391C463.636-100.981,467.622-101.089,483.435-129.714z"/>
	<path fill="#ACACAC" d="M384.809,305.713c22.446-0.161,44.891-0.326,67.337-0.48c3.775-0.026,7.508,0.293,10.65,4.783
		c-22.536,0.23-45.066,0.55-67.597,0.608C391.581,310.633,387.543,312.27,384.809,305.713z"/>
	<path fill="#B0B0B0" d="M387.636,735.643c25.221-9.093,50.449-8.946,75.679-0.149C438.087,735.543,412.862,735.593,387.636,735.643
		z"/>
	<path fill="#7C7C7C" d="M793.453,715.587c4.383,25.055,3.999,50.155,0.222,75.286C793.601,765.777,793.527,740.682,793.453,715.587
		z"/>
	<path fill="#8E8E8E" d="M395.62,446.789c4.41-6.809,9.792-4.882,14.838-4.893c68.099-0.143,136.197-0.122,204.296-0.074
		c3.748,0.003,7.546,0.032,11.231,1.072c4.536,1.279,7.896,5.99,8.367,14.727c0.559,10.349-3.204,15.667-8.109,17.651
		c-4.065,1.644-8.372,1.85-12.572,1.855c-69.977,0.077-139.954,0.049-209.931-0.053c-6.007-0.009-12.462,1.764-16.461-9.627
		c2.96-4.76,4.392-12.204,9.959-11.458c52.222,7.005,104.484,4.78,156.744,1.297c16.043-1.069,31.998,4.632,48.066,2.151
		c-64.506-1.964-129.012,2.179-193.517,0.03C402.977,459.28,397.407,459.29,395.62,446.789z"/>
	<path fill="#949494" d="M395.62,446.789c2.685,1.471,5.361,4.158,8.058,4.232c47.813,1.305,95.698,4.849,143.407-1.585
		c24.529-3.308,48.538,6.975,72.891,3.488c2.591-0.371,6.146,0.859,5.84,7.761c-0.224,5.062-3.203,5.644-5.482,6.048
		c-3.259,0.577-6.554,0.653-9.834,0.654c-66.142,0.027-132.285-0.253-198.425,0.344c-8.269,0.075-16.533-8.48-24.793-0.285
		C387.353,457.033,388.418,447.915,395.62,446.789z"/>
	<path fill="#ABABAB" d="M463.082,517.514c-21.724,0.373-43.448,0.779-65.172,1.087c-3.735,0.053-7.419-0.624-10.335-5.626
		c20.166,0.029,40.332-0.038,60.498,0.153C453.168,513.177,458.466,511.816,463.082,517.514z"/>
	<path fill="#EEEEEE" d="M335.504,869.662c-6.872,16.014-12.582,33.927-22.315,44.797c-7.012,7.831-12.368-2.675-17.66-9.164
		c-2.629-3.224-5.868-7.453-3.887-14.353c2.161-7.527,6.188-8.278,9.509-3.226c6.864,10.444,10.326,4.39,14.214-6.621
		c2.701-7.649,6.447-14.788,10.583-19.936C330.315,855.724,333.787,859.737,335.504,869.662z"/>
	<path fill="#EDEDED" d="M334.627,248.648c-6.498,13.956-12.152,32.356-22.404,41.158c-7.259,6.232-13.044-4.835-18.412-12.78
		c-2.259-3.342-3.815-7.639-1.912-13.041c2.017-5.724,5.455-8.788,8.238-4.224c9.547,15.654,13.479,2.471,17.968-9.926
		c1.757-4.854,3.771-9.571,6.09-13.559c2.292-3.942,5.177-3.099,7.709-0.128C333.967,238.569,335.116,242.066,334.627,248.648z"/>
	<path fill="#F1F1F1" d="M308.582,487.438c-6.318-4.614-13.885-10.04-16.976-22.228c-2.417-9.529,3.568-14.692,7.341-9.673
		c10.336,13.748,14.635,1.891,19.652-11.411c2.002-5.309,4.921-10.503,8.095-13.13c3.833-3.172,7.535-0.33,7.991,8.453
		C335.123,447.89,314.27,486.723,308.582,487.438z"/>
	<path fill="#EDEDED" d="M335.136,672.04c-6.428,16.736-13.953,33.218-23.932,43.582c-6.659,6.916-11.058-9.045-16.776-13.596
		c-2.661-2.117-4.38-6.73-2.729-12.35c1.69-5.754,4.955-10.072,7.965-5.615c9.592,14.204,13.609,2.621,18.11-10.536
		c1.884-5.508,4.619-11.272,7.753-13.942C331.144,654.799,334.114,660.728,335.136,672.04z"/>
	<path fill="#969696" d="M627.126,675.008c-36.508-1.284-72.81,10.407-109.114,8.951c-38.779-1.555-77.555-3.965-116.36-3.935
		c-3.1-1.099-7.834-0.184-7.872-7.431c-0.053-10.011,5.383-7.433,8.667-7.501c20.146-0.414,40.297-0.272,60.445-0.275
		c49.67-0.009,99.34-0.204,149.008,0.311C617.209,665.183,624.643,659.116,627.126,675.008z"/>
	<path fill="#A9A9A9" d="M463.47,942.777c-23.274,0-46.549,0-69.823,0c23.239-2.466,46.51-10.167,69.658,0.215
		C463.301,942.991,463.47,942.777,463.47,942.777z"/>
</g>
</svg>
