<?xml version="1.0" encoding="utf-8"?>
<!-- Generator: Adobe Illustrator 17.0.0, SVG Export Plug-In . SVG Version: 6.00 Build 0)  -->
<!DOCTYPE svg PUBLIC "-//W3C//DTD SVG 1.1//EN" "http://www.w3.org/Graphics/SVG/1.1/DTD/svg11.dtd">
<svg version="1.1" id="Layer_1" xmlns="http://www.w3.org/2000/svg" xmlns:xlink="http://www.w3.org/1999/xlink" x="0px" y="0px"
	 width="1584px" height="2592px" viewBox="0 0 1584 2592" enable-background="new 0 0 1584 2592" xml:space="preserve">
<circle fill="#FFFFFF" cx="579.237" cy="1147.69" r="458.5"/>
<polygon points="454.467,1039.264 387.217,1039.264 309.621,1202.125 375.246,1202.125 420.837,1106.432 466.434,1202.125 
	532.067,1202.125 509.137,1154.009 "/>
<path d="M378.55,1032.223l0.81-1.706l0.81,1.706h64.01l0.81-1.706l0.81,1.706h274.32v-48.117H192v48.117h31.12v169.902h61.49
	v-169.902H378.55z M612.613,1032.219L612.613,1032.219l-2.361,0l0,0H612.613z M551.116,1032.219L551.116,1032.219l-16.454,0l0,0
	H551.116z"/>
<rect x="631.432" y="1031.039" width="0" height="2.361"/>
<rect x="562.889" y="1023.992" width="0" height="16.454"/>
<polygon points="398.55,1032.223 400.17,1032.223 399.36,1030.517 "/>
<polygon points="464.18,1032.223 465.8,1032.223 464.99,1030.517 "/>
<g>
	<path d="M823.688,1205.2H745.78h-4.542c-4.192,0-7.424-0.727-9.695-2.179c-2.271-1.453-3.406-3.524-3.406-6.216
		c0-4.412,2.328-7.318,6.987-8.718c3.843-1.183,6.084-1.91,6.726-2.179c0.639-0.267,1.31-0.888,2.009-1.857
		c1.397-1.72,2.096-4.465,2.096-8.233v-161.602c0-3.766-0.699-6.511-2.096-8.233c-0.699-0.969-1.37-1.587-2.009-1.857
		c-0.642-0.267-2.882-0.994-6.726-2.179c-4.659-1.397-6.987-4.304-6.987-8.718c0-2.689,1.136-4.763,3.406-6.216
		c2.271-1.453,5.502-2.179,9.695-2.179h4.542h77.908h4.542c4.192,0,7.424,0.726,9.695,2.179c2.271,1.453,3.406,3.526,3.406,6.216
		c0,4.414-2.331,7.32-6.987,8.718c-3.844,1.185-6.087,1.912-6.726,2.179c-0.642,0.27-1.311,0.888-2.009,1.857
		c-1.397,1.723-2.097,4.467-2.097,8.233v161.602c0,6.029,1.688,9.58,5.066,10.655l5.415,1.614c4.424,1.292,6.638,4.197,6.638,8.718
		c0,5.597-4.135,8.395-12.402,8.395H823.688z M892.863,1048.763l52.754,127.538c1.397,3.446,2.853,6.054,4.367,7.83
		c1.512,1.776,3.493,3.148,5.939,4.117c2.445,1.077,4.018,1.884,4.716,2.422c1.63,1.508,2.446,3.499,2.446,5.973
		c0,5.706-4.367,8.557-13.102,8.557h-87.865c-4.192,0-7.424-0.807-9.695-2.422c-2.271-1.615-3.406-3.928-3.406-6.942
		c0-3.444,2.153-6.135,6.463-8.072c2.678-1.183,4.482-2.179,5.416-2.987c0.931-0.807,1.454-1.91,1.572-3.309
		c0-0.752-0.467-2.475-1.398-5.166l-22.359-61.67c-2.096-5.704-3.144-10.547-3.144-14.53c0-3.766,1.687-7.855,5.065-12.269
		l41.749-54.406c3.958-5.058,5.939-10.332,5.939-15.821c0-3.012-0.873-5.812-2.62-8.395c-1.747-2.583-4.078-4.412-6.987-5.489
		l-6.289-2.422c-3.96-1.506-5.938-4.036-5.938-7.588c0-2.906,1.223-5.272,3.668-7.103c1.63-1.183,4.307-1.776,8.035-1.776h62.188
		c4.075,0,7.249,0.835,9.52,2.502c2.271,1.67,3.406,4.011,3.406,7.023c0,4.52-2.68,7.749-8.035,9.686l-9.258,3.39
		c-3.843,1.292-8.734,4.197-14.674,8.718c-4.427,3.446-9.899,9.202-16.42,17.274L892.863,1048.763z"/>
</g>
<g>
	<path fill="#006838" d="M221.136,1214.02l11.832,33.693l5.225-18.197v19.939L224.319,1296h-3.183l-23.303-69.127
		c-0.801-2.322-1.642-3.884-2.522-4.686c-0.521-0.52-1.422-0.9-2.703-1.141c-2.603-0.561-3.904-1.802-3.904-3.724
		c0-1.041,0.37-1.852,1.111-2.433c0.74-0.58,1.811-0.871,3.213-0.871H221.136z M197.833,1241.647l6.366,18.139v18.077
		c0,1.842,0.069,3.163,0.21,3.964c0.14,0.802,0.451,1.682,0.931,2.643c0.841,1.763,2.001,3.084,3.483,3.964l2.222,1.441
		c1.521,0.922,2.282,1.942,2.282,3.063c0,2.041-1.501,3.063-4.504,3.063h-15.075c-3.003,0-4.504-1-4.504-3.003
		c0-0.64,0.129-1.131,0.39-1.472c0.26-0.34,0.771-0.729,1.532-1.171c4.444-2.402,6.667-6.566,6.667-12.492V1241.647z
		 M243.237,1214.02h26.666h1.622c3.003,0,4.504,1.042,4.504,3.123c0,1.643-0.801,2.724-2.402,3.244
		c-1.321,0.44-2.093,0.711-2.313,0.811c-0.22,0.101-0.45,0.33-0.69,0.69c-0.48,0.641-0.721,1.662-0.721,3.063v60.118
		c0,1.402,0.24,2.423,0.721,3.063c0.24,0.359,0.47,0.591,0.69,0.69c0.22,0.101,0.991,0.37,2.313,0.811
		c1.601,0.521,2.402,1.602,2.402,3.243c0,2.082-1.501,3.123-4.504,3.123h-1.622h-26.726h-1.982c-1.762,0-3.093-0.271-3.994-0.811
		c-0.9-0.541-1.351-1.352-1.351-2.433c0-1.762,0.961-2.862,2.883-3.304c1.562-0.399,2.482-0.649,2.763-0.75
		c0.28-0.1,0.56-0.33,0.841-0.691c0.601-0.721,0.901-1.861,0.901-3.423V1214.02z"/>
	<path fill="#006838" d="M305.818,1229.276l3.063,12.432l-10.63,38.798c-0.321,1.121-0.48,2.162-0.48,3.123
		c0,2.522,1.181,4.324,3.543,5.405l2.102,0.961c1.321,0.601,1.982,1.602,1.982,3.003c0,2.003-1.462,3.003-4.384,3.003h-15.255
		c-1.482,0-2.653-0.31-3.514-0.931c-0.861-0.62-1.291-1.472-1.291-2.553c0-1.161,0.88-2.122,2.643-2.883
		c1.641-0.721,2.853-1.371,3.634-1.952c0.78-0.58,1.531-1.371,2.252-2.372c1.121-1.642,2.042-3.823,2.763-6.546L305.818,1229.276z
		 M309.962,1214.02h24.204l16.696,70.569c0.32,1.241,0.68,2.343,1.081,3.304c0.36,0.761,1.161,1.381,2.402,1.861
		c1.041,0.441,1.761,0.881,2.162,1.321c0.4,0.441,0.601,1.042,0.601,1.802c0,2.082-1.562,3.123-4.685,3.123h-29.969
		c-1.201,0-2.162-0.29-2.883-0.871c-0.721-0.58-1.081-1.352-1.081-2.313c0-0.8,0.16-1.4,0.48-1.801
		c0.32-0.4,1.041-0.901,2.162-1.502c0.8-0.399,1.361-0.841,1.682-1.321c0.32-0.48,0.48-1.081,0.48-1.802
		c0-0.681-0.06-1.281-0.18-1.802l-1.922-8.708h-16.756l1.622-7.147h13.453l-11.051-48.827L309.962,1214.02z"/>
	<path fill="#006838" d="M370.862,1235.101l6.366,10.57v32.191c0,2.803,0.47,5.104,1.412,6.907c0.94,1.801,2.432,3.283,4.474,4.443
		l1.802,1.021c1.041,0.601,1.562,1.502,1.562,2.703c0,0.921-0.381,1.682-1.141,2.281c-0.641,0.521-1.962,0.781-3.964,0.781h-13.874
		c-3.644,0-5.465-1.041-5.465-3.123c0-0.721,0.189-1.291,0.57-1.712c0.38-0.42,1.211-0.991,2.493-1.712
		c3.844-2.121,5.766-5.984,5.766-11.591V1235.101z M396.026,1214.02l31.951,55.494V1296h-16.396l-40.78-70.269
		c-0.881-1.521-1.602-2.583-2.162-3.183c-0.561-0.602-1.282-1.041-2.162-1.322l-2.282-0.84c-0.601-0.2-1.081-0.561-1.441-1.082
		c-0.36-0.52-0.541-1.101-0.541-1.741c0-0.681,0.18-1.311,0.541-1.892c0.36-0.58,0.841-0.991,1.441-1.231
		c0.68-0.279,2.522-0.421,5.525-0.421H396.026z M427.978,1259.905l-6.366-10.75v-16.637c0-3.363-0.491-5.935-1.472-7.717
		c-0.981-1.781-2.713-3.313-5.195-4.595c-0.841-0.399-1.422-0.83-1.742-1.291c-0.321-0.46-0.48-1.052-0.48-1.772
		c0-1.08,0.35-1.871,1.051-2.372c0.7-0.5,1.832-0.751,3.394-0.751h15.015c2.042,0,3.383,0.321,4.024,0.961
		c0.68,0.642,1.021,1.402,1.021,2.283c0,0.84-0.19,1.471-0.57,1.892c-0.381,0.42-1.292,0.991-2.733,1.712
		c-2.123,1.08-3.724,2.742-4.805,4.984c-0.761,1.643-1.141,3.864-1.141,6.666V1259.905z"/>
	<path fill="#006838" d="M464.553,1229.276l3.063,12.432l-10.63,38.798c-0.321,1.121-0.48,2.162-0.48,3.123
		c0,2.522,1.181,4.324,3.543,5.405l2.102,0.961c1.321,0.601,1.982,1.602,1.982,3.003c0,2.003-1.462,3.003-4.384,3.003h-15.255
		c-1.482,0-2.653-0.31-3.513-0.931c-0.862-0.62-1.292-1.472-1.292-2.553c0-1.161,0.88-2.122,2.643-2.883
		c1.641-0.721,2.853-1.371,3.633-1.952c0.781-0.58,1.532-1.371,2.252-2.372c1.121-1.642,2.042-3.823,2.763-6.546L464.553,1229.276z
		 M468.697,1214.02h24.204l16.696,70.569c0.32,1.241,0.68,2.343,1.081,3.304c0.36,0.761,1.161,1.381,2.402,1.861
		c1.041,0.441,1.761,0.881,2.162,1.321c0.4,0.441,0.601,1.042,0.601,1.802c0,2.082-1.562,3.123-4.685,3.123h-29.969
		c-1.201,0-2.162-0.29-2.883-0.871c-0.721-0.58-1.081-1.352-1.081-2.313c0-0.8,0.16-1.4,0.48-1.801
		c0.32-0.4,1.041-0.901,2.162-1.502c0.8-0.399,1.361-0.841,1.682-1.321c0.32-0.48,0.48-1.081,0.48-1.802
		c0-0.681-0.06-1.281-0.18-1.802l-1.922-8.708h-16.756l1.622-7.147h13.453l-11.051-48.827L468.697,1214.02z"/>
	<path fill="#006838" d="M552.059,1212.399v6.666c-3.524,0.842-5.285,3.645-5.285,8.408v55.915c0,2.162,0.3,3.824,0.901,4.985
		c0.52,0.961,1.622,1.781,3.303,2.462v6.786c-1.282,0-2.453-0.1-3.514-0.299c-1.061-0.201-2.473-0.601-4.234-1.202
		c-4.204-1.441-8.008-3.643-11.411-6.606c-3.404-2.963-6.207-6.506-8.408-10.631c-3.404-6.445-5.105-14.073-5.105-22.882
		c0-8.528,1.521-16.096,4.564-22.702c3.042-6.606,7.407-11.791,13.093-15.555c3.283-2.202,6.806-3.784,10.57-4.745
		C548.095,1212.6,549.936,1212.399,552.059,1212.399z M584.13,1285.971c-1.602,1.602-3.734,3.233-6.396,4.895
		c-2.663,1.662-5.175,2.973-7.537,3.934c-2.162,0.841-4.555,1.521-7.177,2.042c-2.623,0.52-4.936,0.78-6.937,0.78v-6.786
		c1.161-0.279,2.032-0.62,2.613-1.021c0.58-0.4,1.07-0.961,1.471-1.682c0.68-1.241,1.021-2.823,1.021-4.745v-17.537
		c0-1.562-0.3-2.682-0.901-3.363c-0.281-0.399-0.561-0.65-0.841-0.751c-0.281-0.1-1.201-0.33-2.763-0.69
		c-1.922-0.48-2.883-1.601-2.883-3.363c0-1.041,0.451-1.841,1.351-2.402c0.901-0.561,2.232-0.841,3.994-0.841h1.982h21.981
		c1.802,0,3.072,0.251,3.814,0.751c0.74,0.501,1.111,1.372,1.111,2.612c0,0.761-0.15,1.392-0.451,1.892
		c-0.3,0.501-0.851,1.031-1.651,1.592c-0.801,0.562-1.302,1.081-1.501,1.562c-0.201,0.48-0.3,1.361-0.3,2.643V1285.971z
		 M556.983,1218.946v-6.486c6.526,0.6,11.892,1.801,16.096,3.604c1.241,0.561,2.202,0.84,2.883,0.84c0.64,0,1.131-0.149,1.472-0.45
		c0.339-0.3,1.03-1.15,2.072-2.552c0.721-1.001,1.622-1.502,2.703-1.502c1.121,0,1.912,0.311,2.372,0.931
		c0.46,0.621,0.691,1.651,0.691,3.093v23.363c0,3.043-1.122,4.564-3.363,4.564c-1.122,0-1.952-0.301-2.493-0.9
		c-0.54-0.602-1.051-1.781-1.531-3.544c-0.601-2.242-1.682-4.854-3.243-7.838c-1.562-2.982-3.063-5.335-4.504-7.057
		c-1.642-2.002-3.483-3.473-5.525-4.414C562.569,1219.657,560.026,1219.106,556.983,1218.946z"/>
	<path fill="#006838" d="M629.834,1214.02V1296h-26.726h-1.562c-1.441,0-2.553-0.271-3.333-0.811
		c-0.781-0.541-1.171-1.312-1.171-2.313c0-1.642,0.8-2.723,2.402-3.243c1.321-0.44,2.092-0.71,2.312-0.811
		c0.22-0.1,0.451-0.331,0.691-0.69c0.48-0.641,0.721-1.661,0.721-3.063v-60.118c0-1.401-0.24-2.423-0.721-3.063
		c-0.24-0.36-0.471-0.59-0.691-0.69c-0.22-0.1-0.991-0.37-2.312-0.811c-1.602-0.521-2.402-1.602-2.402-3.244
		c0-1,0.39-1.771,1.171-2.312c0.78-0.541,1.892-0.812,3.333-0.812h1.562H629.834z M634.879,1257.743v-6.967
		c2.322-1.12,4.043-2.342,5.165-3.663c1.121-1.321,1.941-3.083,2.462-5.285c0.32-1.521,0.74-2.572,1.261-3.153
		c0.52-0.58,1.261-0.871,2.222-0.871c1.281,0,2.162,0.502,2.643,1.502c0.28,0.521,0.42,1.702,0.42,3.543v22.883
		c0,1.883-0.21,3.184-0.63,3.904c-0.421,0.721-1.192,1.08-2.313,1.08c-0.921,0-1.642-0.279-2.162-0.84
		c-0.521-0.561-0.941-1.502-1.261-2.823c-0.681-2.763-1.652-4.885-2.913-6.366C638.513,1259.206,636.881,1258.223,634.879,1257.743z
		 M635.18,1214.02h24.204v21.262c0,1.241-0.24,2.142-0.721,2.702c-0.48,0.562-1.242,0.841-2.282,0.841
		c-0.881,0-1.522-0.18-1.922-0.541c-0.401-0.359-0.781-1.101-1.141-2.222c-1.522-4.645-3.754-8.188-6.696-10.63
		c-2.943-2.442-6.757-3.904-11.441-4.385V1214.02z M635.24,1296v-6.486c2.602-0.399,4.754-0.961,6.457-1.682
		c1.701-0.721,3.413-1.821,5.135-3.303c1.721-1.481,3.093-3.013,4.114-4.595c1.021-1.581,1.991-3.673,2.913-6.276
		c0.44-1.281,0.901-2.151,1.381-2.612c0.48-0.46,1.141-0.69,1.982-0.69c1.121,0,1.901,0.33,2.342,0.99
		c0.44,0.661,0.661,1.813,0.661,3.453V1296H635.24z"/>
	<path fill="#006838" d="M700.824,1214.02l11.832,33.693l5.225-18.197v19.939L704.007,1296h-3.183l-23.303-69.127
		c-0.801-2.322-1.642-3.884-2.522-4.686c-0.521-0.52-1.422-0.9-2.703-1.141c-2.603-0.561-3.904-1.802-3.904-3.724
		c0-1.041,0.37-1.852,1.111-2.433c0.741-0.58,1.812-0.871,3.213-0.871H700.824z M677.521,1241.647l6.366,18.139v18.077
		c0,1.842,0.069,3.163,0.21,3.964c0.14,0.802,0.45,1.682,0.931,2.643c0.841,1.763,2.001,3.084,3.483,3.964l2.222,1.441
		c1.521,0.922,2.282,1.942,2.282,3.063c0,2.041-1.501,3.063-4.504,3.063h-15.075c-3.003,0-4.504-1-4.504-3.003
		c0-0.64,0.129-1.131,0.391-1.472c0.26-0.34,0.77-0.729,1.531-1.171c4.444-2.402,6.667-6.566,6.667-12.492V1241.647z
		 M722.925,1214.02h26.666h1.622c3.003,0,4.505,1.042,4.505,3.123c0,1.643-0.802,2.724-2.402,3.244
		c-1.322,0.44-2.093,0.711-2.313,0.811c-0.221,0.101-0.451,0.33-0.691,0.69c-0.48,0.641-0.721,1.662-0.721,3.063v60.118
		c0,1.402,0.24,2.423,0.721,3.063c0.24,0.359,0.471,0.591,0.691,0.69c0.22,0.101,0.99,0.37,2.313,0.811
		c1.601,0.521,2.402,1.602,2.402,3.243c0,2.082-1.502,3.123-4.505,3.123h-1.622h-26.726h-1.982c-1.762,0-3.093-0.271-3.994-0.811
		c-0.901-0.541-1.352-1.352-1.352-2.433c0-1.762,0.961-2.862,2.883-3.304c1.562-0.399,2.482-0.649,2.763-0.75
		c0.28-0.1,0.56-0.33,0.841-0.691c0.601-0.721,0.901-1.861,0.901-3.423V1214.02z"/>
	<path fill="#006838" d="M798.358,1214.02V1296h-26.727h-1.561c-1.441,0-2.553-0.271-3.334-0.811
		c-0.78-0.541-1.171-1.312-1.171-2.313c0-1.642,0.801-2.723,2.402-3.243c1.321-0.44,2.092-0.71,2.313-0.811
		c0.22-0.1,0.45-0.331,0.69-0.69c0.48-0.641,0.721-1.661,0.721-3.063v-60.118c0-1.401-0.24-2.423-0.721-3.063
		c-0.24-0.36-0.471-0.59-0.69-0.69c-0.221-0.1-0.991-0.37-2.313-0.811c-1.602-0.521-2.402-1.602-2.402-3.244
		c0-1,0.391-1.771,1.171-2.312c0.781-0.541,1.893-0.812,3.334-0.812h1.561H798.358z M803.403,1257.743v-6.967
		c2.321-1.12,4.044-2.342,5.165-3.663c1.12-1.321,1.941-3.083,2.462-5.285c0.32-1.521,0.741-2.572,1.262-3.153
		c0.52-0.58,1.262-0.871,2.223-0.871c1.28,0,2.162,0.502,2.643,1.502c0.279,0.521,0.42,1.702,0.42,3.543v22.883
		c0,1.883-0.21,3.184-0.631,3.904c-0.42,0.721-1.191,1.08-2.313,1.08c-0.921,0-1.642-0.279-2.162-0.84s-0.94-1.502-1.261-2.823
		c-0.682-2.763-1.651-4.885-2.913-6.366C807.037,1259.206,805.405,1258.223,803.403,1257.743z M803.704,1214.02h24.203v21.262
		c0,1.241-0.24,2.142-0.721,2.702c-0.48,0.562-1.241,0.841-2.282,0.841c-0.881,0-1.522-0.18-1.922-0.541
		c-0.4-0.359-0.78-1.101-1.142-2.222c-1.521-4.645-3.753-8.188-6.696-10.63c-2.942-2.442-6.757-3.904-11.44-4.385V1214.02z
		 M803.764,1296v-6.486c2.603-0.399,4.754-0.961,6.456-1.682c1.701-0.721,3.413-1.821,5.135-3.303s3.094-3.013,4.114-4.595
		c1.021-1.581,1.991-3.673,2.913-6.276c0.44-1.281,0.9-2.151,1.381-2.612c0.48-0.46,1.142-0.69,1.982-0.69
		c1.12,0,1.901,0.33,2.342,0.99c0.44,0.661,0.661,1.813,0.661,3.453V1296H803.764z"/>
	<path fill="#006838" d="M846.587,1235.101l6.365,10.57v32.191c0,2.803,0.471,5.104,1.412,6.907c0.94,1.801,2.432,3.283,4.475,4.443
		l1.801,1.021c1.041,0.601,1.563,1.502,1.563,2.703c0,0.921-0.382,1.682-1.142,2.281c-0.641,0.521-1.962,0.781-3.964,0.781h-13.873
		c-3.645,0-5.466-1.041-5.466-3.123c0-0.721,0.189-1.291,0.57-1.712c0.38-0.42,1.211-0.991,2.493-1.712
		c3.844-2.121,5.766-5.984,5.766-11.591V1235.101z M871.751,1214.02l31.951,55.494V1296h-16.396l-40.779-70.269
		c-0.881-1.521-1.602-2.583-2.162-3.183c-0.562-0.602-1.282-1.041-2.162-1.322l-2.282-0.84c-0.601-0.2-1.081-0.561-1.441-1.082
		c-0.36-0.52-0.54-1.101-0.54-1.741c0-0.681,0.18-1.311,0.54-1.892c0.36-0.58,0.841-0.991,1.441-1.231
		c0.681-0.279,2.522-0.421,5.525-0.421H871.751z M903.702,1259.905l-6.366-10.75v-16.637c0-3.363-0.491-5.935-1.472-7.717
		c-0.981-1.781-2.713-3.313-5.195-4.595c-0.84-0.399-1.421-0.83-1.741-1.291c-0.321-0.46-0.48-1.052-0.48-1.772
		c0-1.08,0.35-1.871,1.051-2.372c0.7-0.5,1.832-0.751,3.394-0.751h15.015c2.042,0,3.383,0.321,4.024,0.961
		c0.68,0.642,1.021,1.402,1.021,2.283c0,0.84-0.19,1.471-0.57,1.892c-0.381,0.42-1.292,0.991-2.733,1.712
		c-2.122,1.08-3.723,2.742-4.805,4.984c-0.761,1.643-1.141,3.864-1.141,6.666V1259.905z"/>
	<path fill="#006838" d="M917.876,1214.02h15.795v7.268c-1.883,1.081-3.344,2.463-4.385,4.145c-1.722,2.723-2.883,5.945-3.482,9.669
		l-0.602,3.663c-0.2,1.162-0.63,2.072-1.291,2.733c-0.66,0.66-1.492,0.991-2.492,0.991c-1.042,0-1.892-0.361-2.553-1.082
		c-0.66-0.721-0.99-1.66-0.99-2.822V1214.02z M965.202,1214.02v70.569c0,1.562,0.3,2.683,0.9,3.363c0.32,0.4,0.62,0.651,0.9,0.751
		c0.28,0.101,1.201,0.351,2.764,0.75c1.922,0.441,2.883,1.542,2.883,3.304c0,1.042-0.521,1.883-1.563,2.522
		c-0.761,0.48-2.041,0.721-3.844,0.721h-1.981h-26.786h-1.982c-1.762,0-3.093-0.271-3.993-0.811
		c-0.901-0.541-1.352-1.352-1.352-2.433c0-1.762,0.961-2.862,2.883-3.304c1.562-0.399,2.482-0.649,2.763-0.75
		c0.279-0.1,0.561-0.351,0.841-0.751c0.601-0.681,0.901-1.802,0.901-3.363v-70.569H965.202z M985.981,1214.02v24.564
		c0,1.162-0.33,2.102-0.99,2.822c-0.661,0.721-1.512,1.082-2.553,1.082c-1.001,0-1.832-0.331-2.492-0.991
		c-0.661-0.661-1.092-1.571-1.291-2.733l-0.602-3.663c-0.6-3.724-1.762-6.946-3.482-9.669c-1.082-1.682-2.544-3.063-4.385-4.145
		v-7.268H985.981z"/>
</g>
<g>
	<path d="M536.683,1196.186v-36.566c26.037,6.584,47.912,9.876,65.634,9.876c10.306,0,18.442-1.235,24.409-3.704
		c5.967-2.469,8.95-5.741,8.95-9.818c0-3.134-2.399-6.073-7.188-8.818c-4.792-2.743-13.065-6.074-24.816-9.994
		c-28.388-9.406-48.954-18.166-61.701-26.278c-12.747-8.113-19.121-17.146-19.121-27.102c0-13.56,9.853-24.612,29.562-33.156
		c19.706-8.542,45.199-12.815,76.482-12.815c23.142,0,46.106,2.157,68.888,6.466v35.155c-24.409-5.8-44.208-8.701-59.396-8.701
		c-10.128,0-18.129,1.079-24.002,3.233c-5.877,2.157-8.814,5.115-8.814,8.877c0,6.584,13.65,13.992,40.953,22.222
		c16.273,4.861,32.771,11.699,49.497,20.517c16.722,8.818,25.087,19.029,25.087,30.628c0,13.562-10.941,24.79-32.816,33.686
		c-21.879,8.897-49.632,13.345-83.263,13.345C582.065,1203.24,559.283,1200.889,536.683,1196.186z"/>
</g>
</svg>
